<?xml version="1.0" encoding="utf-8"?>
<!-- Generator: Adobe Illustrator 18.1.1, SVG Export Plug-In . SVG Version: 6.00 Build 0)  -->
<svg version="1.1" id="Capa_1" xmlns="http://www.w3.org/2000/svg" xmlns:xlink="http://www.w3.org/1999/xlink" x="0px" y="0px"
	 viewBox="-95 -25 420 842" enable-background="new -95 -25 420 842" xml:space="preserve">
<title>Artboard 4</title>
<desc>Created with Sketch.</desc>
<g id="Page-1">
	<g id="Artboard-4">
		<g id="HtmlToSvg" transform="translate(-5.000000, -5.000000)">
			<g id="Created-by-HiQPdf">
				<g id="Group_35_">
					<g id="second-one" transform="translate(24.000000, 363.000000)">
						<g id="Group-3">
							<path id="Shape" fill="#F5F5F5" d="M286-25c1.7,0,3,1.3,3,3v209c0,1.7-1.3,3-3,3H-92c-1.7,0-3-1.3-3-3V-22c0-1.7,1.3-3,3-3
								H286z"/>
							<g id="Group" transform="translate(12.000000, 121.000000)">
								<path id="Shape_1_" fill="#FFFFFF" d="M-92-25h354c1.7,0,3,1.3,3,3V9c0,1.7-1.3,3-3,3H-92c-1.7,0-3-1.3-3-3v-31
									C-95-23.7-93.7-25-92-25"/>
							</g>
							<g id="Group_1_" transform="translate(20.000000, 47.000000)">
								<path id="Shape_2_" fill="#395185" d="M-75.2-4c0.6,0,1.2-0.5,1.2-1.2v-18.7c0-0.6-0.5-1.2-1.2-1.2h-18.7
									c-0.6,0-1.2,0.5-1.2,1.2v18.7c0,0.6,0.5,1.2,1.2,1.2H-75.2"/>
							</g>
							<g id="Group_2_" transform="translate(28.449214, 50.117186)">
								<path id="Shape_3_" fill="#FFFFFF" d="M-89-7.1v-8.1h2.7l0.4-3.2H-89v-2c0-0.9,0.3-1.5,1.6-1.5l1.7,0v-2.8
									c-0.3,0-1.3-0.1-2.4-0.1c-2.4,0-4.1,1.5-4.1,4.2v2.3H-95v3.2h2.7v8.1H-89"/>
							</g>
							<g id="Group_3_" transform="translate(20.000000, 88.000000)">
								<path id="Shape_4_" fill="#55ACEE" d="M-93.9-25h18.9c0.6,0,1.1,0.5,1.1,1.1v18.9c0,0.6-0.5,1.1-1.1,1.1h-18.9
									C-94.5-4-95-4.5-95-5.1v-18.9C-95-24.5-94.5-25-93.9-25"/>
							</g>
							<g id="Group_4_" transform="translate(22.953123, 92.347654)">
								<path id="Shape_5_" fill="#FFFFFF" d="M-79.8-23.5c-0.6,0.2-1.2,0.4-1.8,0.5c0.6-0.4,1.1-1,1.4-1.7c-0.6,0.4-1.3,0.6-2,0.8
									c-0.6-0.6-1.4-1-2.3-1c-1.7,0-3.1,1.4-3.1,3.1c0,0.2,0,0.5,0.1,0.7c-2.6-0.1-4.9-1.4-6.4-3.2c-0.3,0.5-0.4,1-0.4,1.6
									c0,1.1,0.5,2,1.4,2.6c-0.5,0-1-0.2-1.4-0.4c0,0,0,0,0,0c0,1.5,1.1,2.8,2.5,3c-0.3,0.1-0.5,0.1-0.8,0.1c-0.2,0-0.4,0-0.6-0.1
									c0.4,1.2,1.5,2.1,2.9,2.2c-1.1,0.8-2.4,1.3-3.9,1.3c-0.3,0-0.5,0-0.7,0c1.4,0.9,3,1.4,4.8,1.4c5.7,0,8.9-4.7,8.9-8.8
									c0-0.1,0-0.3,0-0.4C-80.8-22.4-80.2-22.9-79.8-23.5"/>
							</g>
							<g id="Group_5_" transform="translate(20.000000, 129.000000)">
								<path id="Shape_6_" fill="#D53F71" d="M-74.9-25c0.5,0,0.9,0.4,0.9,0.9v19.3c0,0.5-0.4,0.9-0.9,0.9h-19.2
									C-94.6-4-95-4.4-95-4.9v-19.3c0-0.5,0.4-0.9,0.9-0.9H-74.9z"/>
							</g>
							<g id="Group_6_" transform="translate(22.692000, 131.692000)">
								<path id="Shape_7_" fill="#FFFFFF" d="M-95-20.5c0-2.5,2-4.5,4.5-4.5h6.6c2.5,0,4.5,2,4.5,4.5v6.6c0,2.5-2,4.5-4.5,4.5h-6.6
									c-2.5,0-4.5-2-4.5-4.5V-20.5 M-93.6-20.4c0-1.8,1.4-3.2,3.2-3.2h6.3c1.8,0,3.2,1.4,3.2,3.2v6.3c0,1.8-1.4,3.2-3.2,3.2h-6.3
									c-1.8,0-3.2-1.4-3.2-3.2V-20.4"/>
							</g>
							<g id="Group_7_" transform="translate(26.528539, 135.528539)">
								<path id="Shape_8_" fill="#FFFFFF" d="M-91-17.1c2.2,0,4-1.8,4-4c0-2.2-1.8-4-4-4c-2.2,0-4,1.8-4,4
									C-95-18.8-93.2-17.1-91-17.1 M-91-18.5c1.4,0,2.6-1.1,2.6-2.6c0-1.4-1.1-2.6-2.6-2.6c-1.4,0-2.6,1.1-2.6,2.6
									C-93.6-19.6-92.4-18.5-91-18.5"/>
							</g>
							<g id="Group_8_" transform="translate(33.663155, 134.384308)">
								<path id="Shape_9_" fill="#FFFFFF" d="M-93.1-24.1c0,0.5-0.4,0.9-0.9,0.9s-0.9-0.4-0.9-0.9c0-0.5,0.4-0.9,0.9-0.9
									S-93.1-24.6-93.1-24.1"/>
							</g>
							<g id="Group_9_" transform="translate(20.000000, 170.000000)">
								<path id="Shape_10_" fill="#231F20" d="M-93.9-25h18.9c0.6,0,1.1,0.5,1.1,1.1v18.9c0,0.6-0.5,1.1-1.1,1.1h-18.9
									C-94.5-4-95-4.5-95-5.1v-18.9C-95-24.5-94.5-25-93.9-25"/>
							</g>
							<g id="Group_10_" transform="translate(32.714401, 174.758000)">
								<path id="Shape_11_" fill="#7F7F7F" d="M-94.6-24.9c-0.2-0.1-0.4,0-0.4,0.2v9.2l3.8,1.9c0.4,0.2,0.7,0.1,0.7-0.3v-8.8
									c0,0,0-0.1-0.1-0.1L-94.6-24.9"/>
							</g>
							<g id="Group_11_" transform="translate(28.202685, 174.758000)">
								<path id="Shape_12_" fill="#ABACAD" d="M-94.9-17.8l4.3-7c0.1-0.2,0.4-0.3,0.6-0.2l4.1,2c0,0,0,0,0,0.1l-4.5,7.3L-94.9-17.8
									"/>
							</g>
							<g id="Group_12_" transform="translate(24.019094, 174.840031)">
								<path id="Shape_13_" fill="#D8D8D8" d="M-94.6-24.9c-0.3-0.2-0.5,0-0.3,0.3l4.1,6.7l4.5,2.3l-4.5-7.3c0,0,0,0,0,0
									L-94.6-24.9"/>
							</g>
							<g id="Group_13_" transform="translate(23.773000, 174.758000)">
								<path id="Shape_14_" fill="#FFFFFF" d="M-90.5-14c0,0.4-0.3,0.6-0.6,0.4l-3.5-1.8c-0.2-0.1-0.4-0.4-0.4-0.6v-8.6
									c0-0.3,0.2-0.4,0.5-0.3l4,2c0,0,0,0,0,0V-14"/>
							</g>
							<g id="social-networks" transform="translate(18.000000, 18.000000)">
								<path id="Rectangle" fill="#B3B3B3" fill-opacity="0.7" d="M-28.5,11h67c2.5,0,4.5,2,4.5,4.5l0,0c0,2.5-2,4.5-4.5,4.5h-67
									c-2.5,0-4.5-2-4.5-4.5l0,0C-33,13-31,11-28.5,11z"/>
								<path id="Rectangle_1_" fill="#B3B3B3" fill-opacity="0.7" d="M-28.5,52h67c2.5,0,4.5,2,4.5,4.5l0,0c0,2.5-2,4.5-4.5,4.5
									h-67c-2.5,0-4.5-2-4.5-4.5l0,0C-33,54-31,52-28.5,52z"/>
								<path id="Rectangle_2_" fill="#B3B3B3" fill-opacity="0.7" d="M-28.5,93h67c2.5,0,4.5,2,4.5,4.5l0,0c0,2.5-2,4.5-4.5,4.5
									h-67c-2.5,0-4.5-2-4.5-4.5l0,0C-33,95-31,93-28.5,93z"/>
								<path id="Rectangle_3_" fill="#B3B3B3" fill-opacity="0.7" d="M-28.5,134h67c2.5,0,4.5,2,4.5,4.5l0,0c0,2.5-2,4.5-4.5,4.5
									h-67c-2.5,0-4.5-2-4.5-4.5l0,0C-33,136-31,134-28.5,134z"/>
								<path id="Rectangle_4_" fill="#B3B3B3" fill-opacity="0.7" d="M214.5,52h32c2.5,0,4.5,2,4.5,4.5l0,0c0,2.5-2,4.5-4.5,4.5
									h-32c-2.5,0-4.5-2-4.5-4.5l0,0C210,54,212,52,214.5,52z"/>
								<path id="Rectangle_5_" fill="#B3B3B3" fill-opacity="0.7" d="M214.5,11h32c2.5,0,4.5,2,4.5,4.5l0,0c0,2.5-2,4.5-4.5,4.5
									h-32c-2.5,0-4.5-2-4.5-4.5l0,0C210,13,212,11,214.5,11z"/>
								<path id="Rectangle_6_" fill="#52CA6F" d="M214.5,93h32c2.5,0,4.5,2,4.5,4.5l0,0c0,2.5-2,4.5-4.5,4.5h-32
									c-2.5,0-4.5-2-4.5-4.5l0,0C210,95,212,93,214.5,93z"/>
								<path id="Rectangle_7_" fill="#B3B3B3" fill-opacity="0.7" d="M214.5,134h32c2.5,0,4.5,2,4.5,4.5l0,0c0,2.5-2,4.5-4.5,4.5
									h-32c-2.5,0-4.5-2-4.5-4.5l0,0C210,136,212,134,214.5,134z"/>
								<path id="Rectangle_8_" fill="#C9C9C9" fill-opacity="0.8" d="M-57.5,52h11.1c2.5,0,4.5,2,4.5,4.5l0,0c0,2.5-2,4.5-4.5,4.5
									h-11.1c-2.5,0-4.5-2-4.5-4.5l0,0C-62,54-60,52-57.5,52z"/>
								<path id="Rectangle_9_" fill="#C9C9C9" fill-opacity="0.8" d="M-57.5,11h11.1c2.5,0,4.5,2,4.5,4.5l0,0c0,2.5-2,4.5-4.5,4.5
									h-11.1c-2.5,0-4.5-2-4.5-4.5l0,0C-62,13-60,11-57.5,11z"/>
								<path id="Rectangle_10_" fill="#C9C9C9" fill-opacity="0.8" d="M-57.5,93h11.1c2.5,0,4.5,2,4.5,4.5l0,0c0,2.5-2,4.5-4.5,4.5
									h-11.1c-2.5,0-4.5-2-4.5-4.5l0,0C-62,95-60,93-57.5,93z"/>
								<path id="Rectangle_11_" fill="#C9C9C9" fill-opacity="0.8" d="M-57.5,134h11.1c2.5,0,4.5,2,4.5,4.5l0,0
									c0,2.5-2,4.5-4.5,4.5h-11.1c-2.5,0-4.5-2-4.5-4.5l0,0C-62,136-60,134-57.5,134z"/>
								<path id="Rectangle_12_" fill="#B3B3B3" d="M-90.5-25h129c2.5,0,4.5,2,4.5,4.5l0,0c0,2.5-2,4.5-4.5,4.5h-129
									c-2.5,0-4.5-2-4.5-4.5l0,0C-95-23-93-25-90.5-25z"/>
							</g>
						</g>
					</g>
					<g id="Group-2">
						<g id="Group_14_">
							<polygon id="Shape_15_" fill="#FFFFFF" stroke="#F5F5F5" points="340,-25 340,48 -95,48 -95,-25 							"/>
						</g>
						<g id="Group_15_" transform="translate(29.000000, 32.000000)">
							<path id="Shape_16_" fill="#CCCCCC" d="M-82.5-14h-0.8l-0.3-0.3c1-1.1,1.6-2.6,1.6-4.2c0-3.6-2.9-6.5-6.5-6.5
								s-6.5,2.9-6.5,6.5s2.9,6.5,6.5,6.5c1.6,0,3.1-0.6,4.2-1.6l0.3,0.3v0.8l5,5l1.5-1.5L-82.5-14 M-88.5-14c-2.5,0-4.5-2-4.5-4.5
								s2-4.5,4.5-4.5s4.5,2,4.5,4.5S-86-14-88.5-14"/>
						</g>
					</g>
					<g id="topone" transform="translate(24.000000, 96.000000)">
						<g id="top-one">
							<path id="Shape_17_" fill="#F5F5F5" d="M286-25c1.7,0,3,1.3,3,3v250c0,1.7-1.3,3-3,3H-92c-1.7,0-3-1.3-3-3V-22
								c0-1.7,1.3-3,3-3H286z"/>
						</g>
						<g id="Group_16_" transform="translate(19.000000, 88.000000)">
							<polyline id="Shape_18_" fill-opacity="3.921570e-02" points="-95,-25 251,-25 251,-2 -95,-2 -95,-25 							"/>
						</g>
						<g id="Group_17_" transform="translate(12.000000, 80.000000)">
							<path id="Shape_19_" fill="#FFFFFF" d="M-92-25h354c1.7,0,3,1.3,3,3V9c0,1.7-1.3,3-3,3H-92c-1.7,0-3-1.3-3-3v-31
								C-95-23.7-93.7-25-92-25"/>
						</g>
						<g id="Group_18_" transform="translate(19.000000, 129.000000)">
							<polyline id="Shape_20_" fill-opacity="3.921570e-02" points="-95,-25 251,-25 251,-2 -95,-2 -95,-25 							"/>
						</g>
						<g id="Group_19_" transform="translate(12.000000, 121.000000)">
							<path id="Shape_21_" fill="#FFFFFF" d="M-92-25h354c1.7,0,3,1.3,3,3V9c0,1.7-1.3,3-3,3H-92c-1.7,0-3-1.3-3-3v-31
								C-95-23.7-93.7-25-92-25"/>
						</g>
						<g id="Group_20_" transform="translate(19.000000, 170.000000)">
							<polyline id="Shape_22_" fill-opacity="3.921570e-02" points="-95,-25 251,-25 251,-2 -95,-2 -95,-25 							"/>
						</g>
						<g id="Group_21_" transform="translate(12.000000, 162.000000)">
							<path id="Shape_23_" fill="#FFFFFF" d="M-92-25h354c1.7,0,3,1.3,3,3V9c0,1.7-1.3,3-3,3H-92c-1.7,0-3-1.3-3-3v-31
								C-95-23.7-93.7-25-92-25"/>
						</g>
						<g id="Group_22_" transform="translate(19.000000, 211.000000)">
							<polyline id="Shape_24_" fill-opacity="3.921570e-02" points="-95,-25 251,-25 251,-2 -95,-2 -95,-25 							"/>
						</g>
						<g id="Group_23_" transform="translate(12.000000, 203.000000)">
							<path id="Shape_25_" fill="#FFFFFF" d="M-92-25h354c1.7,0,3,1.3,3,3V9c0,1.7-1.3,3-3,3H-92c-1.7,0-3-1.3-3-3v-31
								C-95-23.7-93.7-25-92-25"/>
						</g>
						<g id="Group_24_" transform="translate(136.000000, 88.000000)">
						</g>
						<path id="Rectangle_13_" fill="#3FC55F" fill-opacity="0.9" d="M232.5,70h32c2.5,0,4.5,2,4.5,4.5l0,0c0,2.5-2,4.5-4.5,4.5h-32
							c-2.5,0-4.5-2-4.5-4.5l0,0C228,72,230,70,232.5,70z"/>
						<path id="Rectangle_14_" fill="#3FC55F" fill-opacity="0.9" d="M232.5,193h32c2.5,0,4.5,2,4.5,4.5l0,0c0,2.5-2,4.5-4.5,4.5
							h-32c-2.5,0-4.5-2-4.5-4.5l0,0C228,195,230,193,232.5,193z"/>
						<path id="Rectangle_15_" fill="#C6C6C6" d="M232.5,29h32c2.5,0,4.5,2,4.5,4.5l0,0c0,2.5-2,4.5-4.5,4.5h-32
							c-2.5,0-4.5-2-4.5-4.5l0,0C228,31,230,29,232.5,29z"/>
						<path id="Rectangle_16_" fill="#3FC55F" fill-opacity="0.9" d="M232.5,111h32c2.5,0,4.5,2,4.5,4.5l0,0c0,2.5-2,4.5-4.5,4.5
							h-32c-2.5,0-4.5-2-4.5-4.5l0,0C228,113,230,111,232.5,111z"/>
						<path id="Rectangle_17_" fill="#3FC55F" fill-opacity="0.9" d="M232.5,152h32c2.5,0,4.5,2,4.5,4.5l0,0c0,2.5-2,4.5-4.5,4.5
							h-32c-2.5,0-4.5-2-4.5-4.5l0,0C228,154,230,152,232.5,152z"/>
						<path id="Rectangle_18_" fill="#B3B3B3" fill-opacity="0.5" d="M-37.5,31h67c2.5,0,4.5,2,4.5,4.5l0,0c0,2.5-2,4.5-4.5,4.5h-67
							c-2.5,0-4.5-2-4.5-4.5l0,0C-42,33-40,31-37.5,31z"/>
						<path id="Rectangle_19_" fill="#B3B3B3" fill-opacity="0.5" d="M-37.5,72h67c2.5,0,4.5,2,4.5,4.5l0,0c0,2.5-2,4.5-4.5,4.5h-67
							c-2.5,0-4.5-2-4.5-4.5l0,0C-42,74-40,72-37.5,72z"/>
						<path id="Rectangle_20_" fill="#B3B3B3" fill-opacity="0.5" d="M-37.5,113h67c2.5,0,4.5,2,4.5,4.5l0,0c0,2.5-2,4.5-4.5,4.5
							h-67c-2.5,0-4.5-2-4.5-4.5l0,0C-42,115-40,113-37.5,113z"/>
						<path id="Rectangle_21_" fill="#B3B3B3" fill-opacity="0.5" d="M-37.5,154h67c2.5,0,4.5,2,4.5,4.5l0,0c0,2.5-2,4.5-4.5,4.5
							h-67c-2.5,0-4.5-2-4.5-4.5l0,0C-42,156-40,154-37.5,154z"/>
						<path id="Rectangle_22_" fill="#B3B3B3" fill-opacity="0.5" d="M-37.5,194h67c2.5,0,4.5,2,4.5,4.5l0,0c0,2.5-2,4.5-4.5,4.5
							h-67c-2.5,0-4.5-2-4.5-4.5l0,0C-42,196-40,194-37.5,194z"/>
						<path id="Rectangle_23_" fill="#B3B3B3" fill-opacity="0.3" d="M47.5,72h32c2.5,0,4.5,2,4.5,4.5l0,0c0,2.5-2,4.5-4.5,4.5h-32
							C45,81,43,79,43,76.5l0,0C43,74,45,72,47.5,72z"/>
						<path id="Rectangle_24_" fill="#B3B3B3" fill-opacity="0.3" d="M47.5,31h32c2.5,0,4.5,2,4.5,4.5l0,0c0,2.5-2,4.5-4.5,4.5h-32
							C45,40,43,38,43,35.5l0,0C43,33,45,31,47.5,31z"/>
						<path id="Rectangle_25_" fill="#B3B3B3" fill-opacity="0.3" d="M47.5,113h32c2.5,0,4.5,2,4.5,4.5l0,0c0,2.5-2,4.5-4.5,4.5h-32
							c-2.5,0-4.5-2-4.5-4.5l0,0C43,115,45,113,47.5,113z"/>
						<path id="Rectangle_26_" fill="#B3B3B3" fill-opacity="0.3" d="M47.5,154h32c2.5,0,4.5,2,4.5,4.5l0,0c0,2.5-2,4.5-4.5,4.5h-32
							c-2.5,0-4.5-2-4.5-4.5l0,0C43,156,45,154,47.5,154z"/>
						<path id="Rectangle_27_" fill="#B3B3B3" fill-opacity="0.3" d="M47.5,194h32c2.5,0,4.5,2,4.5,4.5l0,0c0,2.5-2,4.5-4.5,4.5h-32
							c-2.5,0-4.5-2-4.5-4.5l0,0C43,196,45,194,47.5,194z"/>
						<path id="Rectangle_28_" fill="#C9C9C9" d="M-65.5,72h11.1c2.5,0,4.5,2,4.5,4.5l0,0c0,2.5-2,4.5-4.5,4.5h-11.1
							c-2.5,0-4.5-2-4.5-4.5l0,0C-70,74-68,72-65.5,72z"/>
						<path id="Rectangle_29_" fill="#C9C9C9" d="M-65.5,31h11.1c2.5,0,4.5,2,4.5,4.5l0,0c0,2.5-2,4.5-4.5,4.5h-11.1
							c-2.5,0-4.5-2-4.5-4.5l0,0C-70,33-68,31-65.5,31z"/>
						<path id="Rectangle_30_" fill="#C9C9C9" d="M-65.5,113h11.1c2.5,0,4.5,2,4.5,4.5l0,0c0,2.5-2,4.5-4.5,4.5h-11.1
							c-2.5,0-4.5-2-4.5-4.5l0,0C-70,115-68,113-65.5,113z"/>
						<path id="Rectangle_31_" fill="#C9C9C9" d="M-65.5,154h11.1c2.5,0,4.5,2,4.5,4.5l0,0c0,2.5-2,4.5-4.5,4.5h-11.1
							c-2.5,0-4.5-2-4.5-4.5l0,0C-70,156-68,154-65.5,154z"/>
						<path id="Rectangle_32_" fill="#C9C9C9" d="M-65.5,194h11.1c2.5,0,4.5,2,4.5,4.5l0,0c0,2.5-2,4.5-4.5,4.5h-11.1
							c-2.5,0-4.5-2-4.5-4.5l0,0C-70,196-68,194-65.5,194z"/>
						<path id="Rectangle_33_" fill="#B3B3B3" d="M-72.5-10h101C31-10,33-8,33-5.5l0,0C33-3,31-1,28.5-1h-101C-75-1-77-3-77-5.5l0,0
							C-77-8-75-10-72.5-10z"/>
					</g>
					<g id="bottom-one" transform="translate(24.000000, 594.000000)">
						<g id="top-one_1_">
							<path id="Shape_26_" fill="#F5F5F5" d="M286-25c1.7,0,3,1.3,3,3v250c0,1.7-1.3,3-3,3H-92c-1.7,0-3-1.3-3-3V-22
								c0-1.7,1.3-3,3-3H286z"/>
						</g>
						<g id="Group_25_" transform="translate(19.000000, 88.000000)">
							<polyline id="Shape_27_" fill-opacity="3.921570e-02" points="-95,-25 251,-25 251,-2 -95,-2 -95,-25 							"/>
						</g>
						<g id="Group_26_" transform="translate(12.000000, 80.000000)">
							<path id="Shape_28_" fill="#FFFFFF" d="M-92-25h354c1.7,0,3,1.3,3,3V9c0,1.7-1.3,3-3,3H-92c-1.7,0-3-1.3-3-3v-31
								C-95-23.7-93.7-25-92-25"/>
						</g>
						<g id="Group_27_" transform="translate(12.000000, 40.000000)">
							<path id="Shape_29_" fill="#FFFFFF" d="M-92-25h354c1.7,0,3,1.3,3,3V9c0,1.7-1.3,3-3,3H-92c-1.7,0-3-1.3-3-3v-31
								C-95-23.7-93.7-25-92-25"/>
						</g>
						<g id="Group_28_" transform="translate(19.000000, 129.000000)">
							<polyline id="Shape_30_" fill-opacity="3.921570e-02" points="-95,-25 251,-25 251,-2 -95,-2 -95,-25 							"/>
						</g>
						<g id="Group_29_" transform="translate(12.000000, 121.000000)">
							<path id="Shape_31_" fill="#FFFFFF" d="M-92-25h354c1.7,0,3,1.3,3,3V9c0,1.7-1.3,3-3,3H-92c-1.7,0-3-1.3-3-3v-31
								C-95-23.7-93.7-25-92-25"/>
						</g>
						<g id="Group_30_" transform="translate(19.000000, 170.000000)">
							<polyline id="Shape_32_" fill-opacity="3.921570e-02" points="-95,-25 251,-25 251,-2 -95,-2 -95,-25 							"/>
						</g>
						<g id="Group_31_" transform="translate(12.000000, 162.000000)">
							<path id="Shape_33_" fill="#FFFFFF" d="M-92-25h354c1.7,0,3,1.3,3,3V9c0,1.7-1.3,3-3,3H-92c-1.7,0-3-1.3-3-3v-31
								C-95-23.7-93.7-25-92-25"/>
						</g>
						<g id="Group_32_" transform="translate(19.000000, 211.000000)">
							<polyline id="Shape_34_" fill-opacity="3.921570e-02" points="-95,-25 251,-25 251,-2 -95,-2 -95,-25 							"/>
						</g>
						<g id="Group_33_" transform="translate(12.000000, 203.000000)">
							<path id="Shape_35_" fill="#FFFFFF" d="M-92-25h354c1.7,0,3,1.3,3,3V9c0,1.7-1.3,3-3,3H-92c-1.7,0-3-1.3-3-3v-31
								C-95-23.7-93.7-25-92-25"/>
						</g>
						<g id="Group_34_" transform="translate(136.000000, 88.000000)">
						</g>
						<path id="Rectangle_34_" fill="#3FC55F" fill-opacity="0.9" d="M232.5,70h32c2.5,0,4.5,2,4.5,4.5l0,0c0,2.5-2,4.5-4.5,4.5h-32
							c-2.5,0-4.5-2-4.5-4.5l0,0C228,72,230,70,232.5,70z"/>
						<path id="Rectangle_35_" fill="#3FC55F" fill-opacity="0.9" d="M232.5,193h32c2.5,0,4.5,2,4.5,4.5l0,0c0,2.5-2,4.5-4.5,4.5
							h-32c-2.5,0-4.5-2-4.5-4.5l0,0C228,195,230,193,232.5,193z"/>
						<path id="Rectangle_36_" fill="#52CA6F" d="M232.5,29h32c2.5,0,4.5,2,4.5,4.5l0,0c0,2.5-2,4.5-4.5,4.5h-32
							c-2.5,0-4.5-2-4.5-4.5l0,0C228,31,230,29,232.5,29z"/>
						<path id="Rectangle_37_" fill="#3FC55F" fill-opacity="0.9" d="M232.5,111h32c2.5,0,4.5,2,4.5,4.5l0,0c0,2.5-2,4.5-4.5,4.5
							h-32c-2.5,0-4.5-2-4.5-4.5l0,0C228,113,230,111,232.5,111z"/>
						<path id="Rectangle_38_" fill="#3FC55F" fill-opacity="0.9" d="M232.5,152h32c2.5,0,4.5,2,4.5,4.5l0,0c0,2.5-2,4.5-4.5,4.5
							h-32c-2.5,0-4.5-2-4.5-4.5l0,0C228,154,230,152,232.5,152z"/>
						<path id="Rectangle_39_" fill="#B3B3B3" fill-opacity="0.5" d="M-37.5,31h67c2.5,0,4.5,2,4.5,4.5l0,0c0,2.5-2,4.5-4.5,4.5h-67
							c-2.5,0-4.5-2-4.5-4.5l0,0C-42,33-40,31-37.5,31z"/>
						<path id="Rectangle_40_" fill="#B3B3B3" fill-opacity="0.5" d="M-37.5,72h67c2.5,0,4.5,2,4.5,4.5l0,0c0,2.5-2,4.5-4.5,4.5h-67
							c-2.5,0-4.5-2-4.5-4.5l0,0C-42,74-40,72-37.5,72z"/>
						<path id="Rectangle_41_" fill="#B3B3B3" fill-opacity="0.5" d="M-37.5,113h67c2.5,0,4.5,2,4.5,4.5l0,0c0,2.5-2,4.5-4.5,4.5
							h-67c-2.5,0-4.5-2-4.5-4.5l0,0C-42,115-40,113-37.5,113z"/>
						<path id="Rectangle_42_" fill="#B3B3B3" fill-opacity="0.5" d="M-37.5,154h67c2.5,0,4.5,2,4.5,4.5l0,0c0,2.5-2,4.5-4.5,4.5
							h-67c-2.5,0-4.5-2-4.5-4.5l0,0C-42,156-40,154-37.5,154z"/>
						<path id="Rectangle_43_" fill="#B3B3B3" fill-opacity="0.5" d="M-37.5,194h67c2.5,0,4.5,2,4.5,4.5l0,0c0,2.5-2,4.5-4.5,4.5
							h-67c-2.5,0-4.5-2-4.5-4.5l0,0C-42,196-40,194-37.5,194z"/>
						<path id="Rectangle_44_" fill="#B3B3B3" fill-opacity="0.3" d="M47.5,72h32c2.5,0,4.5,2,4.5,4.5l0,0c0,2.5-2,4.5-4.5,4.5h-32
							C45,81,43,79,43,76.5l0,0C43,74,45,72,47.5,72z"/>
						<path id="Rectangle_45_" fill="#B3B3B3" fill-opacity="0.3" d="M47.5,31h32c2.5,0,4.5,2,4.5,4.5l0,0c0,2.5-2,4.5-4.5,4.5h-32
							C45,40,43,38,43,35.5l0,0C43,33,45,31,47.5,31z"/>
						<path id="Rectangle_46_" fill="#B3B3B3" fill-opacity="0.3" d="M47.5,113h32c2.5,0,4.5,2,4.5,4.5l0,0c0,2.5-2,4.5-4.5,4.5h-32
							c-2.5,0-4.5-2-4.5-4.5l0,0C43,115,45,113,47.5,113z"/>
						<path id="Rectangle_47_" fill="#B3B3B3" fill-opacity="0.3" d="M47.5,154h32c2.5,0,4.5,2,4.5,4.5l0,0c0,2.5-2,4.5-4.5,4.5h-32
							c-2.5,0-4.5-2-4.5-4.5l0,0C43,156,45,154,47.5,154z"/>
						<path id="Rectangle_48_" fill="#B3B3B3" fill-opacity="0.3" d="M47.5,194h32c2.5,0,4.5,2,4.5,4.5l0,0c0,2.5-2,4.5-4.5,4.5h-32
							c-2.5,0-4.5-2-4.5-4.5l0,0C43,196,45,194,47.5,194z"/>
						<path id="Rectangle_49_" fill="#C9C9C9" d="M-65.5,72h11.1c2.5,0,4.5,2,4.5,4.5l0,0c0,2.5-2,4.5-4.5,4.5h-11.1
							c-2.5,0-4.5-2-4.5-4.5l0,0C-70,74-68,72-65.5,72z"/>
						<path id="Rectangle_50_" fill="#C9C9C9" d="M-65.5,31h11.1c2.5,0,4.5,2,4.5,4.5l0,0c0,2.5-2,4.5-4.5,4.5h-11.1
							c-2.5,0-4.5-2-4.5-4.5l0,0C-70,33-68,31-65.5,31z"/>
						<path id="Rectangle_51_" fill="#C9C9C9" d="M-65.5,113h11.1c2.5,0,4.5,2,4.5,4.5l0,0c0,2.5-2,4.5-4.5,4.5h-11.1
							c-2.5,0-4.5-2-4.5-4.5l0,0C-70,115-68,113-65.5,113z"/>
						<path id="Rectangle_52_" fill="#C9C9C9" d="M-65.5,154h11.1c2.5,0,4.5,2,4.5,4.5l0,0c0,2.5-2,4.5-4.5,4.5h-11.1
							c-2.5,0-4.5-2-4.5-4.5l0,0C-70,156-68,154-65.5,154z"/>
						<path id="Rectangle_53_" fill="#C9C9C9" d="M-65.5,194h11.1c2.5,0,4.5,2,4.5,4.5l0,0c0,2.5-2,4.5-4.5,4.5h-11.1
							c-2.5,0-4.5-2-4.5-4.5l0,0C-70,196-68,194-65.5,194z"/>
						<path id="Rectangle_54_" fill="#B3B3B3" d="M-72.5-10h101C31-10,33-8,33-5.5l0,0C33-3,31-1,28.5-1h-101C-75-1-77-3-77-5.5l0,0
							C-77-8-75-10-72.5-10z"/>
					</g>
				</g>
			</g>
		</g>
		<g id="default-tlds" transform="translate(59.000000, 29.000000)">
			<path id="Rectangle_55_" fill="#B3B3B3" fill-opacity="0.7" d="M-88.5-25h110c3.6,0,6.5,2.9,6.5,6.5l0,0c0,3.6-2.9,6.5-6.5,6.5
				h-110c-3.6,0-6.5-2.9-6.5-6.5l0,0C-95-22.1-92.1-25-88.5-25z"/>
		</g>
	</g>
</g>
<rect x="-57" y="379.2" fill="#FFFFFF" width="22.5" height="21.9"/>
<rect x="-56.7" y="420.6" fill="#FFFFFF" width="22.5" height="21.9"/>
<rect x="-56.7" y="461.6" fill="#FFFFFF" width="22.5" height="21.9"/>
<rect x="-56.7" y="502.6" fill="#FFFFFF" width="22.5" height="21.9"/>
</svg>
