<?xml version="1.0" encoding="utf-8"?>
<!-- Generator: Adobe Illustrator 18.1.1, SVG Export Plug-In . SVG Version: 6.00 Build 0)  -->
<svg version="1.1" id="Capa_1" xmlns="http://www.w3.org/2000/svg" xmlns:xlink="http://www.w3.org/1999/xlink" x="0px" y="0px"
	 viewBox="224 -35 1060 862" enable-background="new 224 -35 1060 862" xml:space="preserve">
<title>Artboard 2</title>
<desc>Created with Sketch.</desc>
<g id="Page-1">
	<g id="Artboard-2">
		<g id="HtmlToSvg" transform="translate(-68.000000, 0.000000)">
			<g id="Created-by-HiQPdf">
				<g id="Group_20_">
					<g id="Shape" transform="translate(220.000000, 88.000000)">
						<path fill="#F5F5F5" d="M227-35h774c1.7,0,3,1.3,3,3v166c0,1.7-1.3,3-3,3H227c-1.7,0-3-1.3-3-3V-32C224-33.7,225.3-35,227-35"
							/>
					</g>
					<g id="Shape_1_" transform="translate(220.000000, 272.000000)">
						<path fill="#F5F5F5" d="M605-35c1.7,0,3,1.3,3,3v209c0,1.7-1.3,3-3,3H227c-1.7,0-3-1.3-3-3V-32c0-1.7,1.3-3,3-3H605z"/>
					</g>
					<g id="Shape_2_" transform="translate(220.000000, 499.000000)">
						<path fill="#F5F5F5" d="M227-35h378c1.7,0,3,1.3,3,3v250c0,1.7-1.3,3-3,3H227c-1.7,0-3-1.3-3-3V-32C224-33.7,225.3-35,227-35"
							/>
					</g>
					<g id="Shape_3_" transform="translate(616.000000, 272.000000)">
						<path fill="#F5F5F5" d="M227-35h378c1.7,0,3,1.3,3,3v573c0,1.7-1.3,3-3,3H227c-1.7,0-3-1.3-3-3V-32C224-33.7,225.3-35,227-35"
							/>
					</g>
					<g id="Shape_4_" transform="translate(391.000000, 135.000000)">
						<polyline fill-opacity="3.921570e-02" points="224,-35 358,-35 358,72 224,72 224,-35 						"/>
					</g>
					<g id="Shape_5_" transform="translate(384.000000, 127.000000)">
						<path fill="#FFFFFF" d="M227-35h142c1.7,0,3,1.3,3,3V83c0,1.7-1.3,3-3,3H227c-1.7,0-3-1.3-3-3V-32C224-33.7,225.3-35,227-35"
							/>
					</g>
					<g id="Shape_6_" transform="translate(543.000000, 135.000000)">
						<polyline fill-opacity="3.921570e-02" points="224,-35 358,-35 358,72 224,72 224,-35 						"/>
					</g>
					<g id="Shape_7_" transform="translate(536.000000, 127.000000)">
						<path fill="#FFFFFF" d="M227-35h142c1.7,0,3,1.3,3,3V83c0,1.7-1.3,3-3,3H227c-1.7,0-3-1.3-3-3V-32C224-33.7,225.3-35,227-35"
							/>
					</g>
					<g id="Shape_8_" transform="translate(695.000000, 135.000000)">
						<polyline fill-opacity="3.921570e-02" points="224,-35 358,-35 358,72 224,72 224,-35 						"/>
					</g>
					<g id="Shape_9_" transform="translate(688.000000, 127.000000)">
						<path fill="#FFFFFF" d="M227-35h142c1.7,0,3,1.3,3,3V83c0,1.7-1.3,3-3,3H227c-1.7,0-3-1.3-3-3V-32C224-33.7,225.3-35,227-35"
							/>
					</g>
					<g id="Shape_10_" transform="translate(847.000000, 135.000000)">
						<polyline fill-opacity="3.921570e-02" points="224,-35 358,-35 358,72 224,72 224,-35 						"/>
					</g>
					<g id="Shape_11_" transform="translate(840.000000, 127.000000)">
						<path fill="#FFFFFF" d="M227-35h142c1.7,0,3,1.3,3,3V83c0,1.7-1.3,3-3,3H227c-1.7,0-3-1.3-3-3V-32C224-33.7,225.3-35,227-35"
							/>
					</g>
					<g id="Shape_12_" transform="translate(239.000000, 546.000000)">
						<polyline fill-opacity="3.921570e-02" points="224,-35 570,-35 570,-12 224,-12 224,-35 						"/>
					</g>
					<g id="Shape_13_" transform="translate(232.000000, 538.000000)">
						<path fill="#FFFFFF" d="M227-35h354c1.7,0,3,1.3,3,3v31c0,1.7-1.3,3-3,3H227c-1.7,0-3-1.3-3-3v-31C224-33.7,225.3-35,227-35"
							/>
					</g>
					<g id="Shape_14_" transform="translate(232.000000, 393.000000)">
						<path fill="#FFFFFF" d="M227-35h354c1.7,0,3,1.3,3,3v31c0,1.7-1.3,3-3,3H227c-1.7,0-3-1.3-3-3v-31C224-33.7,225.3-35,227-35"
							/>
					</g>
					<g id="Shape_15_" transform="translate(239.000000, 587.000000)">
						<polyline fill-opacity="3.921570e-02" points="224,-35 570,-35 570,-12 224,-12 224,-35 						"/>
					</g>
					<g id="Shape_16_" transform="translate(232.000000, 579.000000)">
						<path fill="#FFFFFF" d="M227-35h354c1.7,0,3,1.3,3,3v31c0,1.7-1.3,3-3,3H227c-1.7,0-3-1.3-3-3v-31C224-33.7,225.3-35,227-35"
							/>
					</g>
					<g id="Shape_17_" transform="translate(239.000000, 628.000000)">
						<polyline fill-opacity="3.921570e-02" points="224,-35 570,-35 570,-12 224,-12 224,-35 						"/>
					</g>
					<g id="Shape_18_" transform="translate(232.000000, 620.000000)">
						<path fill="#FFFFFF" d="M227-35h354c1.7,0,3,1.3,3,3v31c0,1.7-1.3,3-3,3H227c-1.7,0-3-1.3-3-3v-31C224-33.7,225.3-35,227-35"
							/>
					</g>
					<g id="Shape_19_" transform="translate(239.000000, 669.000000)">
						<polyline fill-opacity="3.921570e-02" points="224,-35 570,-35 570,-12 224,-12 224,-35 						"/>
					</g>
					<g id="Shape_20_" transform="translate(232.000000, 661.000000)">
						<path fill="#FFFFFF" d="M227-35h354c1.7,0,3,1.3,3,3v31c0,1.7-1.3,3-3,3H227c-1.7,0-3-1.3-3-3v-31C224-33.7,225.3-35,227-35"
							/>
					</g>
					<g id="Shape_21_" transform="translate(239.000000, 710.000000)">
						<polyline fill-opacity="3.921570e-02" points="224,-35 570,-35 570,-12 224,-12 224,-35 						"/>
					</g>
					<g id="Shape_22_" transform="translate(232.000000, 702.000000)">
						<path fill="#FFFFFF" d="M227-35h354c1.7,0,3,1.3,3,3v31c0,1.7-1.3,3-3,3H227c-1.7,0-3-1.3-3-3v-31C224-33.7,225.3-35,227-35"
							/>
					</g>
					<g id="Shape_23_" transform="translate(635.000000, 319.000000)">
						<polyline fill-opacity="3.921570e-02" points="224,-35 570,-35 570,79 224,79 224,-35 						"/>
					</g>
					<g id="Shape_24_" transform="translate(628.000000, 311.000000)">
						<path fill="#FFFFFF" d="M227-35h354c1.7,0,3,1.3,3,3V90c0,1.7-1.3,3-3,3H227c-1.7,0-3-1.3-3-3V-32C224-33.7,225.3-35,227-35"
							/>
					</g>
					<g id="Shape_25_" transform="translate(635.000000, 451.000000)">
						<polyline fill-opacity="3.921570e-02" points="224,-35 570,-35 570,79 224,79 224,-35 						"/>
					</g>
					<g id="Shape_26_" transform="translate(628.000000, 443.000000)">
						<path fill="#FFFFFF" d="M227-35h354c1.7,0,3,1.3,3,3V90c0,1.7-1.3,3-3,3H227c-1.7,0-3-1.3-3-3V-32C224-33.7,225.3-35,227-35"
							/>
					</g>
					<g id="Shape_27_" transform="translate(635.000000, 583.000000)">
						<polyline fill-opacity="3.921570e-02" points="224,-35 570,-35 570,79 224,79 224,-35 						"/>
					</g>
					<g id="Shape_28_" transform="translate(628.000000, 575.000000)">
						<path fill="#FFFFFF" d="M227-35h354c1.7,0,3,1.3,3,3V90c0,1.7-1.3,3-3,3H227c-1.7,0-3-1.3-3-3V-32C224-33.7,225.3-35,227-35"
							/>
					</g>
					<g id="Shape_29_" transform="translate(635.000000, 715.000000)">
						<polyline fill-opacity="3.921570e-02" points="224,-35 570,-35 570,79 224,79 224,-35 						"/>
					</g>
					<g id="Shape_30_" transform="translate(628.000000, 707.000000)">
						<path fill="#FFFFFF" d="M227-35h354c1.7,0,3,1.3,3,3V90c0,1.7-1.3,3-3,3H227c-1.7,0-3-1.3-3-3V-32C224-33.7,225.3-35,227-35"
							/>
					</g>
					<g id="_x2E_com" transform="translate(273.000000, 159.000000)">
						<path fill="#B3B3B3" d="M224.1-21c0-0.3,0.1-0.6,0.2-0.9c0.1-0.3,0.3-0.5,0.5-0.7s0.4-0.4,0.7-0.5c0.3-0.1,0.6-0.2,0.9-0.2
							c0.3,0,0.6,0.1,0.9,0.2c0.3,0.1,0.5,0.3,0.7,0.5c0.2,0.2,0.4,0.4,0.5,0.7c0.1,0.3,0.2,0.6,0.2,0.9c0,0.3-0.1,0.6-0.2,0.9
							c-0.1,0.3-0.3,0.5-0.5,0.7c-0.2,0.2-0.4,0.4-0.7,0.5c-0.3,0.1-0.6,0.2-0.9,0.2c-0.3,0-0.6-0.1-0.9-0.2
							c-0.3-0.1-0.5-0.3-0.7-0.5c-0.2-0.2-0.4-0.4-0.5-0.7S224.1-20.7,224.1-21L224.1-21z M242.5-31.1c-0.1,0.1-0.2,0.2-0.3,0.3
							c-0.1,0.1-0.3,0.1-0.5,0.1c-0.2,0-0.4-0.1-0.6-0.2c-0.2-0.1-0.4-0.2-0.6-0.4s-0.5-0.3-0.9-0.4c-0.3-0.1-0.8-0.2-1.3-0.2
							c-0.7,0-1.2,0.1-1.7,0.4c-0.5,0.2-0.9,0.6-1.2,1c-0.3,0.4-0.6,1-0.7,1.6s-0.2,1.3-0.2,2.1c0,0.8,0.1,1.5,0.3,2.2
							s0.4,1.2,0.8,1.6c0.3,0.4,0.7,0.8,1.2,1c0.5,0.2,1,0.3,1.6,0.3c0.6,0,1.1-0.1,1.4-0.2s0.7-0.3,0.9-0.5
							c0.2-0.2,0.5-0.3,0.7-0.5s0.4-0.2,0.6-0.2c0.3,0,0.5,0.1,0.7,0.3l1.1,1.4c-0.4,0.5-0.9,0.9-1.3,1.2c-0.5,0.3-1,0.6-1.5,0.8
							c-0.5,0.2-1,0.3-1.6,0.4s-1.1,0.1-1.6,0.1c-1,0-1.8-0.2-2.7-0.5c-0.8-0.4-1.6-0.9-2.2-1.6c-0.6-0.7-1.1-1.5-1.5-2.5
							c-0.4-1-0.5-2.1-0.5-3.4c0-1.1,0.2-2.2,0.5-3.1c0.3-1,0.8-1.8,1.4-2.5c0.6-0.7,1.4-1.3,2.3-1.7s2-0.6,3.2-0.6
							c1.2,0,2.2,0.2,3,0.6s1.6,0.9,2.3,1.6L242.5-31.1z M252.6-34.6c1.2,0,2.2,0.2,3.1,0.6s1.7,0.9,2.4,1.6s1.2,1.5,1.5,2.5
							c0.4,1,0.5,2.1,0.5,3.3c0,1.2-0.2,2.3-0.5,3.3c-0.4,1-0.9,1.8-1.5,2.5s-1.5,1.2-2.4,1.6c-0.9,0.4-2,0.6-3.1,0.6
							s-2.2-0.2-3.1-0.6c-0.9-0.4-1.7-0.9-2.4-1.6c-0.7-0.7-1.2-1.5-1.5-2.5c-0.4-1-0.5-2.1-0.5-3.3c0-1.2,0.2-2.3,0.5-3.3
							c0.4-1,0.9-1.8,1.5-2.5c0.7-0.7,1.5-1.2,2.4-1.6S251.5-34.6,252.6-34.6L252.6-34.6z M252.6-21.6c1.3,0,2.2-0.4,2.8-1.3
							s0.9-2.1,0.9-3.8s-0.3-2.9-0.9-3.8s-1.6-1.3-2.8-1.3c-1.3,0-2.3,0.4-2.9,1.3c-0.6,0.9-0.9,2.1-0.9,3.8s0.3,2.9,0.9,3.8
							C250.4-22.1,251.3-21.6,252.6-21.6L252.6-21.6z M263.1-19v-15.4h2.3c0.5,0,0.8,0.2,0.9,0.7l0.2,1.1c0.3-0.3,0.6-0.6,0.8-0.8
							c0.3-0.2,0.6-0.5,0.9-0.6c0.3-0.2,0.7-0.3,1.1-0.4c0.4-0.1,0.8-0.2,1.3-0.2c1,0,1.8,0.3,2.4,0.8c0.6,0.5,1.1,1.2,1.4,2.1
							c0.2-0.5,0.5-0.9,0.9-1.3c0.4-0.4,0.8-0.7,1.2-0.9c0.4-0.2,0.9-0.4,1.4-0.5s1-0.2,1.5-0.2c0.9,0,1.6,0.1,2.3,0.4
							c0.7,0.3,1.2,0.6,1.7,1.1c0.4,0.5,0.8,1.1,1,1.8c0.2,0.7,0.4,1.5,0.4,2.5v9.8H281v-9.8c0-1-0.2-1.7-0.6-2.2
							c-0.4-0.5-1.1-0.7-1.9-0.7c-0.4,0-0.7,0.1-1.1,0.2c-0.3,0.1-0.6,0.3-0.9,0.6s-0.4,0.6-0.6,0.9c-0.1,0.4-0.2,0.8-0.2,1.3v9.8
							H272v-9.8c0-1-0.2-1.8-0.6-2.2c-0.4-0.5-1-0.7-1.8-0.7c-0.5,0-1,0.1-1.5,0.4c-0.5,0.3-0.9,0.6-1.3,1.1V-19H263.1z"/>
					</g>
					<g id="_x2E_co" transform="translate(438.000000, 162.000000)">
						<path d="M224.1-21c0-0.3,0.1-0.6,0.2-0.9c0.1-0.3,0.3-0.5,0.5-0.7s0.4-0.4,0.7-0.5c0.3-0.1,0.6-0.2,0.9-0.2
							c0.3,0,0.6,0.1,0.9,0.2c0.3,0.1,0.5,0.3,0.7,0.5c0.2,0.2,0.4,0.4,0.5,0.7c0.1,0.3,0.2,0.6,0.2,0.9c0,0.3-0.1,0.6-0.2,0.9
							c-0.1,0.3-0.3,0.5-0.5,0.7c-0.2,0.2-0.4,0.4-0.7,0.5c-0.3,0.1-0.6,0.2-0.9,0.2c-0.3,0-0.6-0.1-0.9-0.2
							c-0.3-0.1-0.5-0.3-0.7-0.5c-0.2-0.2-0.4-0.4-0.5-0.7S224.1-20.7,224.1-21L224.1-21z M242.5-31.1c-0.1,0.1-0.2,0.2-0.3,0.3
							c-0.1,0.1-0.3,0.1-0.5,0.1c-0.2,0-0.4-0.1-0.6-0.2c-0.2-0.1-0.4-0.2-0.6-0.4s-0.5-0.3-0.9-0.4c-0.3-0.1-0.8-0.2-1.3-0.2
							c-0.7,0-1.2,0.1-1.7,0.4c-0.5,0.2-0.9,0.6-1.2,1c-0.3,0.4-0.6,1-0.7,1.6s-0.2,1.3-0.2,2.1c0,0.8,0.1,1.5,0.3,2.2
							s0.4,1.2,0.8,1.6c0.3,0.4,0.7,0.8,1.2,1c0.5,0.2,1,0.3,1.6,0.3c0.6,0,1.1-0.1,1.4-0.2s0.7-0.3,0.9-0.5
							c0.2-0.2,0.5-0.3,0.7-0.5s0.4-0.2,0.6-0.2c0.3,0,0.5,0.1,0.7,0.3l1.1,1.4c-0.4,0.5-0.9,0.9-1.3,1.2c-0.5,0.3-1,0.6-1.5,0.8
							c-0.5,0.2-1,0.3-1.6,0.4s-1.1,0.1-1.6,0.1c-1,0-1.8-0.2-2.7-0.5c-0.8-0.4-1.6-0.9-2.2-1.6c-0.6-0.7-1.1-1.5-1.5-2.5
							c-0.4-1-0.5-2.1-0.5-3.4c0-1.1,0.2-2.2,0.5-3.1c0.3-1,0.8-1.8,1.4-2.5c0.6-0.7,1.4-1.3,2.3-1.7s2-0.6,3.2-0.6
							c1.2,0,2.2,0.2,3,0.6s1.6,0.9,2.3,1.6L242.5-31.1z M252.6-34.6c1.2,0,2.2,0.2,3.1,0.6s1.7,0.9,2.4,1.6s1.2,1.5,1.5,2.5
							c0.4,1,0.5,2.1,0.5,3.3c0,1.2-0.2,2.3-0.5,3.3c-0.4,1-0.9,1.8-1.5,2.5s-1.5,1.2-2.4,1.6c-0.9,0.4-2,0.6-3.1,0.6
							s-2.2-0.2-3.1-0.6c-0.9-0.4-1.7-0.9-2.4-1.6c-0.7-0.7-1.2-1.5-1.5-2.5c-0.4-1-0.5-2.1-0.5-3.3c0-1.2,0.2-2.3,0.5-3.3
							c0.4-1,0.9-1.8,1.5-2.5c0.7-0.7,1.5-1.2,2.4-1.6S251.5-34.6,252.6-34.6L252.6-34.6z M252.6-21.6c1.3,0,2.2-0.4,2.8-1.3
							s0.9-2.1,0.9-3.8s-0.3-2.9-0.9-3.8s-1.6-1.3-2.8-1.3c-1.3,0-2.3,0.4-2.9,1.3c-0.6,0.9-0.9,2.1-0.9,3.8s0.3,2.9,0.9,3.8
							C250.4-22.1,251.3-21.6,252.6-21.6L252.6-21.6z"/>
					</g>
					<g id="_x2E_io" transform="translate(594.000000, 155.000000)">
						<path d="M224.1-14c0-0.3,0.1-0.6,0.2-0.9c0.1-0.3,0.3-0.5,0.5-0.7s0.4-0.4,0.7-0.5c0.3-0.1,0.6-0.2,0.9-0.2
							c0.3,0,0.6,0.1,0.9,0.2c0.3,0.1,0.5,0.3,0.7,0.5c0.2,0.2,0.4,0.4,0.5,0.7c0.1,0.3,0.2,0.6,0.2,0.9c0,0.3-0.1,0.6-0.2,0.9
							c-0.1,0.3-0.3,0.5-0.5,0.7c-0.2,0.2-0.4,0.4-0.7,0.5c-0.3,0.1-0.6,0.2-0.9,0.2c-0.3,0-0.6-0.1-0.9-0.2
							c-0.3-0.1-0.5-0.3-0.7-0.5s-0.4-0.4-0.5-0.7C224.2-13.4,224.1-13.7,224.1-14L224.1-14z M235.7-27.4V-12H232v-15.4H235.7z
							 M236.2-31.9c0,0.3-0.1,0.6-0.2,0.9s-0.3,0.5-0.5,0.7s-0.5,0.4-0.8,0.5c-0.3,0.1-0.6,0.2-0.9,0.2c-0.3,0-0.6-0.1-0.9-0.2
							c-0.3-0.1-0.5-0.3-0.7-0.5c-0.2-0.2-0.4-0.5-0.5-0.7s-0.2-0.6-0.2-0.9c0-0.3,0.1-0.6,0.2-0.9s0.3-0.5,0.5-0.8
							c0.2-0.2,0.5-0.4,0.7-0.5s0.6-0.2,0.9-0.2c0.3,0,0.6,0.1,0.9,0.2c0.3,0.1,0.5,0.3,0.8,0.5c0.2,0.2,0.4,0.5,0.5,0.8
							S236.2-32.2,236.2-31.9L236.2-31.9z M246.4-27.6c1.2,0,2.2,0.2,3.1,0.6c0.9,0.4,1.7,0.9,2.4,1.6s1.2,1.5,1.5,2.5
							s0.5,2.1,0.5,3.3c0,1.2-0.2,2.3-0.5,3.3c-0.4,1-0.9,1.8-1.5,2.5s-1.5,1.2-2.4,1.6c-0.9,0.4-2,0.6-3.1,0.6
							c-1.1,0-2.2-0.2-3.1-0.6s-1.7-0.9-2.4-1.6c-0.7-0.7-1.2-1.5-1.5-2.5c-0.4-1-0.5-2.1-0.5-3.3c0-1.2,0.2-2.3,0.5-3.3
							s0.9-1.8,1.5-2.5c0.7-0.7,1.5-1.2,2.4-1.6C244.2-27.4,245.3-27.6,246.4-27.6L246.4-27.6z M246.4-14.6c1.3,0,2.2-0.4,2.8-1.3
							c0.6-0.9,0.9-2.1,0.9-3.8s-0.3-2.9-0.9-3.8c-0.6-0.9-1.6-1.3-2.8-1.3c-1.3,0-2.3,0.4-2.9,1.3c-0.6,0.9-0.9,2.1-0.9,3.8
							c0,1.7,0.3,2.9,0.9,3.8C244.2-15.1,245.1-14.6,246.4-14.6L246.4-14.6z"/>
					</g>
					<g id="_x2E_net" transform="translate(737.000000, 157.000000)">
						<path d="M224.1-16c0-0.3,0.1-0.6,0.2-0.9c0.1-0.3,0.3-0.5,0.5-0.7s0.4-0.4,0.7-0.5c0.3-0.1,0.6-0.2,0.9-0.2
							c0.3,0,0.6,0.1,0.9,0.2c0.3,0.1,0.5,0.3,0.7,0.5c0.2,0.2,0.4,0.4,0.5,0.7c0.1,0.3,0.2,0.6,0.2,0.9c0,0.3-0.1,0.6-0.2,0.9
							c-0.1,0.3-0.3,0.5-0.5,0.7c-0.2,0.2-0.4,0.4-0.7,0.5c-0.3,0.1-0.6,0.2-0.9,0.2c-0.3,0-0.6-0.1-0.9-0.2
							c-0.3-0.1-0.5-0.3-0.7-0.5s-0.4-0.4-0.5-0.7C224.2-15.4,224.1-15.7,224.1-16L224.1-16z M231.7-14v-15.4h2.3
							c0.5,0,0.8,0.2,0.9,0.7l0.3,1.2c0.3-0.3,0.6-0.6,1-0.9c0.3-0.3,0.7-0.5,1.1-0.7c0.4-0.2,0.8-0.3,1.2-0.4s0.9-0.2,1.4-0.2
							c0.8,0,1.6,0.1,2.2,0.4c0.7,0.3,1.2,0.7,1.6,1.2c0.4,0.5,0.8,1.1,1,1.8c0.2,0.7,0.3,1.5,0.3,2.4v9.8h-3.7v-9.8
							c0-0.9-0.2-1.7-0.7-2.2c-0.4-0.5-1.1-0.8-2-0.8c-0.6,0-1.2,0.1-1.8,0.4c-0.6,0.3-1.1,0.7-1.6,1.2V-14H231.7z M255.1-29.6
							c1,0,1.9,0.2,2.7,0.5s1.5,0.8,2.1,1.4c0.6,0.6,1.1,1.3,1.4,2.2c0.3,0.9,0.5,1.9,0.5,3c0,0.3,0,0.5,0,0.7
							c0,0.2-0.1,0.3-0.1,0.4c-0.1,0.1-0.2,0.2-0.3,0.2c-0.1,0-0.2,0.1-0.4,0.1h-9.5c0.1,1.6,0.5,2.7,1.3,3.5s1.7,1.1,2.9,1.1
							c0.6,0,1.1-0.1,1.6-0.2c0.4-0.1,0.8-0.3,1.1-0.5c0.3-0.2,0.6-0.3,0.9-0.5c0.2-0.1,0.5-0.2,0.7-0.2c0.1,0,0.3,0,0.4,0.1
							c0.1,0.1,0.2,0.1,0.3,0.3l1.1,1.4c-0.4,0.5-0.9,0.9-1.4,1.2c-0.5,0.3-1,0.6-1.6,0.8c-0.6,0.2-1.1,0.3-1.7,0.4
							s-1.1,0.1-1.7,0.1c-1.1,0-2.1-0.2-3-0.5c-0.9-0.4-1.7-0.9-2.4-1.6c-0.7-0.7-1.2-1.6-1.6-2.6c-0.4-1-0.6-2.2-0.6-3.6
							c0-1.1,0.2-2,0.5-3c0.3-0.9,0.8-1.7,1.5-2.4c0.6-0.7,1.4-1.2,2.3-1.6C253-29.4,254-29.6,255.1-29.6L255.1-29.6z M255.2-27
							c-1.1,0-1.9,0.3-2.5,0.9c-0.6,0.6-1,1.5-1.2,2.6h7c0-0.5-0.1-0.9-0.2-1.4s-0.3-0.8-0.6-1.1c-0.3-0.3-0.6-0.6-1-0.8
							C256.2-26.9,255.8-27,255.2-27L255.2-27z M269.9-13.8c-1.3,0-2.4-0.4-3.1-1.1c-0.7-0.8-1.1-1.8-1.1-3.1v-8.6h-1.6
							c-0.2,0-0.4-0.1-0.5-0.2c-0.1-0.1-0.2-0.3-0.2-0.6v-1.5l2.5-0.4l0.8-4.2c0-0.2,0.1-0.4,0.3-0.5c0.1-0.1,0.3-0.2,0.5-0.2h1.9
							v4.8h4.1v2.6h-4.1v8.3c0,0.5,0.1,0.9,0.4,1.1c0.2,0.3,0.6,0.4,1,0.4c0.2,0,0.4,0,0.6-0.1s0.3-0.1,0.4-0.2
							c0.1-0.1,0.2-0.1,0.3-0.2s0.2-0.1,0.3-0.1c0.1,0,0.2,0,0.3,0.1c0.1,0.1,0.1,0.1,0.2,0.2l1.1,1.8c-0.5,0.5-1.2,0.8-1.9,1
							C271.4-13.9,270.6-13.8,269.9-13.8L269.9-13.8z"/>
					</g>
					<g id="_x2E_xyz" transform="translate(887.000000, 162.000000)">
						<path d="M224.1-21c0-0.3,0.1-0.6,0.2-0.9c0.1-0.3,0.3-0.5,0.5-0.7s0.4-0.4,0.7-0.5c0.3-0.1,0.6-0.2,0.9-0.2
							c0.3,0,0.6,0.1,0.9,0.2c0.3,0.1,0.5,0.3,0.7,0.5c0.2,0.2,0.4,0.4,0.5,0.7c0.1,0.3,0.2,0.6,0.2,0.9c0,0.3-0.1,0.6-0.2,0.9
							c-0.1,0.3-0.3,0.5-0.5,0.7c-0.2,0.2-0.4,0.4-0.7,0.5c-0.3,0.1-0.6,0.2-0.9,0.2c-0.3,0-0.6-0.1-0.9-0.2
							c-0.3-0.1-0.5-0.3-0.7-0.5c-0.2-0.2-0.4-0.4-0.5-0.7S224.1-20.7,224.1-21L224.1-21z M235.4-26.9l-5.1-7.5h3.6
							c0.3,0,0.5,0,0.6,0.1c0.1,0.1,0.2,0.2,0.3,0.4l3.2,5.1c0.1-0.2,0.1-0.3,0.2-0.5s0.2-0.3,0.3-0.5l2.6-4
							c0.1-0.2,0.2-0.3,0.4-0.4c0.1-0.1,0.3-0.1,0.5-0.1h3.4l-5.1,7.3l5.3,8.1H242c-0.3,0-0.5-0.1-0.7-0.2c-0.2-0.1-0.3-0.3-0.4-0.5
							l-3.3-5.4c-0.1,0.4-0.2,0.7-0.4,0.9l-2.9,4.5c-0.1,0.2-0.2,0.3-0.4,0.5c-0.2,0.1-0.4,0.2-0.6,0.2h-3.3L235.4-26.9z
							 M253.4-14.8c-0.1,0.3-0.3,0.5-0.4,0.6c-0.2,0.1-0.4,0.2-0.8,0.2h-2.8l2.9-6.2l-6.2-14.2h3.2c0.3,0,0.5,0.1,0.7,0.2
							s0.3,0.3,0.4,0.5l3.3,8c0.1,0.3,0.2,0.5,0.3,0.8c0.1,0.3,0.1,0.6,0.2,0.8c0.1-0.3,0.2-0.6,0.3-0.8s0.2-0.5,0.3-0.8l3.1-8
							c0.1-0.2,0.2-0.4,0.4-0.5s0.4-0.2,0.6-0.2h3L253.4-14.8z M275.1-32.9c0,0.3,0,0.5-0.1,0.8c-0.1,0.2-0.2,0.5-0.3,0.6l-7.3,9.6
							h7.6v2.9H263v-1.5c0-0.2,0-0.4,0.1-0.6c0.1-0.2,0.2-0.5,0.4-0.7l7.4-9.7h-7.4v-2.8h11.7V-32.9z"/>
					</g>
					<g id="Shape_31_" transform="translate(240.000000, 319.000000)">
						<path fill="#395185" d="M243.8-14c0.6,0,1.2-0.5,1.2-1.2v-18.7c0-0.6-0.5-1.2-1.2-1.2h-18.7c-0.6,0-1.2,0.5-1.2,1.2v18.7
							c0,0.6,0.5,1.2,1.2,1.2H243.8"/>
					</g>
					<g id="Shape_32_" transform="translate(248.449214, 322.117186)">
						<path fill="#FFFFFF" d="M230-17.1v-8.1h2.7l0.4-3.2H230v-2c0-0.9,0.3-1.5,1.6-1.5l1.7,0v-2.8c-0.3,0-1.3-0.1-2.4-0.1
							c-2.4,0-4.1,1.5-4.1,4.2v2.3H224v3.2h2.7v8.1H230"/>
					</g>
					<g id="social-networks">
						<g id="Group" transform="translate(240.000000, 360.000000)">
							<path id="Shape_33_" fill="#55ACEE" d="M225.1-35h18.9c0.6,0,1.1,0.5,1.1,1.1v18.9c0,0.6-0.5,1.1-1.1,1.1h-18.9
								c-0.6,0-1.1-0.5-1.1-1.1v-18.9C224-34.5,224.5-35,225.1-35"/>
						</g>
						<g id="Group_1_" transform="translate(242.953123, 364.347654)">
							<path id="Shape_34_" fill="#FFFFFF" d="M239.2-33.5c-0.6,0.2-1.2,0.4-1.8,0.5c0.6-0.4,1.1-1,1.4-1.7c-0.6,0.4-1.3,0.6-2,0.8
								c-0.6-0.6-1.4-1-2.3-1c-1.7,0-3.1,1.4-3.1,3.1c0,0.2,0,0.5,0.1,0.7c-2.6-0.1-4.9-1.4-6.4-3.2c-0.3,0.5-0.4,1-0.4,1.6
								c0,1.1,0.5,2,1.4,2.6c-0.5,0-1-0.2-1.4-0.4c0,0,0,0,0,0c0,1.5,1.1,2.8,2.5,3c-0.3,0.1-0.5,0.1-0.8,0.1c-0.2,0-0.4,0-0.6-0.1
								c0.4,1.2,1.5,2.1,2.9,2.2c-1.1,0.8-2.4,1.3-3.9,1.3c-0.3,0-0.5,0-0.7,0c1.4,0.9,3,1.4,4.8,1.4c5.7,0,8.9-4.7,8.9-8.8
								c0-0.1,0-0.3,0-0.4C238.2-32.4,238.8-32.9,239.2-33.5"/>
						</g>
						<g id="Group_2_" transform="translate(240.000000, 401.000000)">
							<path id="Shape_35_" fill="#D53F71" d="M244.1-35c0.5,0,0.9,0.4,0.9,0.9v19.3c0,0.5-0.4,0.9-0.9,0.9h-19.2
								c-0.5,0-0.9-0.4-0.9-0.9v-19.3c0-0.5,0.4-0.9,0.9-0.9H244.1z"/>
						</g>
						<g id="Group_3_" transform="translate(242.692000, 403.692000)">
							<path id="Shape_36_" fill="#FFFFFF" d="M224-30.5c0-2.5,2-4.5,4.5-4.5h6.6c2.5,0,4.5,2,4.5,4.5v6.6c0,2.5-2,4.5-4.5,4.5h-6.6
								c-2.5,0-4.5-2-4.5-4.5V-30.5 M225.4-30.4c0-1.8,1.4-3.2,3.2-3.2h6.3c1.8,0,3.2,1.4,3.2,3.2v6.3c0,1.8-1.4,3.2-3.2,3.2h-6.3
								c-1.8,0-3.2-1.4-3.2-3.2V-30.4"/>
						</g>
						<g id="Group_4_" transform="translate(246.528539, 407.528539)">
							<path id="Shape_37_" fill="#FFFFFF" d="M228-27.1c2.2,0,4-1.8,4-4c0-2.2-1.8-4-4-4s-4,1.8-4,4C224-28.8,225.8-27.1,228-27.1
								 M228-28.5c1.4,0,2.6-1.1,2.6-2.6c0-1.4-1.1-2.6-2.6-2.6s-2.6,1.1-2.6,2.6C225.4-29.6,226.6-28.5,228-28.5"/>
						</g>
						<g id="Group_5_" transform="translate(253.663155, 406.384308)">
							<path id="Shape_38_" fill="#FFFFFF" d="M225.9-34.1c0,0.5-0.4,0.9-0.9,0.9c-0.5,0-0.9-0.4-0.9-0.9s0.4-0.9,0.9-0.9
								C225.5-35,225.9-34.6,225.9-34.1"/>
						</g>
						<g id="Group_6_" transform="translate(240.000000, 442.000000)">
							<path id="Shape_39_" fill="#231F20" d="M225.1-35h18.9c0.6,0,1.1,0.5,1.1,1.1v18.9c0,0.6-0.5,1.1-1.1,1.1h-18.9
								c-0.6,0-1.1-0.5-1.1-1.1v-18.9C224-34.5,224.5-35,225.1-35"/>
						</g>
						<g id="Group_7_" transform="translate(252.714401, 446.758000)">
							<path id="Shape_40_" fill="#7F7F7F" d="M224.4-34.9c-0.2-0.1-0.4,0-0.4,0.2v9.2l3.8,1.9c0.4,0.2,0.7,0.1,0.7-0.3v-8.8
								c0,0,0-0.1-0.1-0.1L224.4-34.9"/>
						</g>
						<g id="Group_8_" transform="translate(248.202685, 446.758000)">
							<path id="Shape_41_" fill="#ABACAD" d="M224.1-27.8l4.3-7c0.1-0.2,0.4-0.3,0.6-0.2l4.1,2c0,0,0,0,0,0.1l-4.5,7.3L224.1-27.8"
								/>
						</g>
						<g id="Group_9_" transform="translate(244.019094, 446.840031)">
							<path id="Shape_42_" fill="#D8D8D8" d="M224.4-34.9c-0.3-0.2-0.5,0-0.3,0.3l4.1,6.7l4.5,2.3l-4.5-7.3c0,0,0,0,0,0L224.4-34.9
								"/>
						</g>
						<g id="Group_10_" transform="translate(243.773000, 446.758000)">
							<path id="Shape_43_" fill="#FFFFFF" d="M228.5-24c0,0.4-0.3,0.6-0.6,0.4l-3.5-1.8c-0.2-0.1-0.4-0.4-0.4-0.6v-8.6
								c0-0.3,0.2-0.4,0.5-0.3l4,2c0,0,0,0,0,0V-24"/>
						</g>
						<g id="Group_11_" transform="translate(356.000000, 587.000000)">
						</g>
						<path id="Shape_44_" fill="#F5F5F5" d="M447,730h378c1.7,0,3,0.9,3,2v168c0,1.1-1.3,2-3,2H447c-1.7,0-3-0.9-3-2V732
							C444,730.9,445.3,730,447,730"/>
						<g id="Group_12_" transform="translate(232.000000, 804.000000)">
							<path id="Shape_45_" fill="#FFFFFF" d="M227-35h354c1.7,0,3,1.3,3,3v31c0,1.7-1.3,3-3,3H227c-1.7,0-3-1.3-3-3v-31
								C224-33.7,225.3-35,227-35"/>
						</g>
						<g id="Group_13_" transform="translate(232.000000, 845.000000)">
							<path id="Shape_46_" fill="#FFFFFF" d="M227-35h354c1.7,0,3,1.3,3,3v31c0,1.7-1.3,3-3,3H227c-1.7,0-3-1.3-3-3v-31
								C224-33.7,225.3-35,227-35"/>
						</g>
						<g id="Group_14_" transform="translate(742.000000, 354.000000)">
							<path id="launchaco" d="M224.6-34.5v21c0,0.3,0.2,0.5,0.5,0.5h3.1c0.3,0,0.4-0.2,0.4-0.5v-21c0-0.3-0.2-0.5-0.4-0.5h-3.1
								C224.8-34.9,224.6-34.7,224.6-34.5L224.6-34.5z M246.4-27.7h-2.8c-0.3,0-0.4,0.2-0.4,0.5l-0.1,1.4c-1.1-1.3-2.6-2.2-4.5-2.2
								c-4.1,0-7.1,3.4-7.1,7.7s3,7.7,7.1,7.7c1.9,0,3.4-0.9,4.4-2.1l0.1,1.3c0,0.3,0.2,0.5,0.4,0.5h2.8c0.3,0,0.5-0.2,0.5-0.5
								v-13.8C246.8-27.5,246.6-27.7,246.4-27.7L246.4-27.7z M239.1-16.2c-2.2,0-3.8-1.8-3.8-4.1c0-2.3,1.6-4.1,3.8-4.1
								c2.2,0,3.8,1.9,3.8,4.1S241.2-16.2,239.1-16.2L239.1-16.2z M263.4-27.7h-3.1c-0.3,0-0.5,0.2-0.5,0.5v8.1c0,1-1,2.8-3.2,2.8
								c-1.4,0-2.8-0.8-2.8-3.3v-7.7c0-0.3-0.2-0.5-0.4-0.5h-3.1c-0.3,0-0.4,0.2-0.4,0.5v8.4c0,3.9,2.3,6.2,5.6,6.2
								c1.9,0,3.4-1,4.4-2.5l0.1,1.6c0,0.3,0.2,0.5,0.5,0.5h2.9c0.3,0,0.5-0.2,0.5-0.5v-13.8C263.9-27.5,263.7-27.7,263.4-27.7
								L263.4-27.7z M275.8-28c-2.1,0-3.7,1.2-4.6,2.7v0l-0.1-1.9c0-0.3-0.2-0.5-0.4-0.5h-2.9c-0.3,0-0.5,0.2-0.5,0.5v13.8
								c0,0.3,0.2,0.5,0.5,0.5h3.1c0.3,0,0.4-0.2,0.4-0.5v-8c0-0.7,1-2.9,3.2-2.9c1.4,0,2.8,0.8,2.8,3.3v7.6c0,0.3,0.2,0.5,0.5,0.5
								h3.1c0.3,0,0.4-0.2,0.4-0.5v-8.4C281.1-25.8,278.8-28,275.8-28L275.8-28z M291.5-16.3c-2.2,0-3.8-1.7-3.8-4s1.6-4,3.8-4
								c1.4,0,2.2,0.6,3.1,1.3c0.2,0.2,0.5,0.2,0.7,0l1.8-1.8c0.2-0.2,0.2-0.4,0-0.6c-1.4-1.6-3.4-2.6-5.7-2.6
								c-4.2,0-7.5,3.4-7.5,7.7s3.3,7.7,7.5,7.7c2.3,0,4.4-1,5.8-2.6c0.2-0.2,0.1-0.5,0-0.6l-1.8-1.7c-0.2-0.2-0.4-0.2-0.7,0
								C293.9-16.8,293-16.3,291.5-16.3L291.5-16.3z M308.6-28c-2.1,0-3.7,1.2-4.6,2.7v-9.2c0-0.3-0.2-0.5-0.5-0.5h-3.1
								c-0.3,0-0.4,0.2-0.4,0.5v21c0,0.3,0.2,0.5,0.4,0.5h3.1c0.3,0,0.5-0.2,0.5-0.5v-8c0-0.7,1-2.9,3.2-2.9c1.4,0,2.8,0.8,2.8,3.3
								v7.6c0,0.3,0.2,0.5,0.5,0.5h3.1c0.3,0,0.4-0.2,0.4-0.5v-8.4C314-25.8,311.6-28,308.6-28L308.6-28z M331.7-27.7h-2.8
								c-0.3,0-0.4,0.2-0.4,0.5l-0.1,1.4c-1.1-1.3-2.6-2.2-4.5-2.2c-4.1,0-7.1,3.4-7.1,7.7s3,7.7,7.1,7.7c1.9,0,3.4-0.9,4.4-2.1
								l0.1,1.3c0,0.3,0.2,0.5,0.4,0.5h2.8c0.3,0,0.5-0.2,0.5-0.5v-13.8C332.1-27.5,332-27.7,331.7-27.7L331.7-27.7z M324.4-16.2
								c-2.2,0-3.8-1.8-3.8-4.1c0-2.3,1.6-4.1,3.8-4.1c2.2,0,3.8,1.9,3.8,4.1S326.6-16.2,324.4-16.2L324.4-16.2z M342.6-16.3
								c-2.2,0-3.8-1.7-3.8-4s1.6-4,3.8-4c1.3,0,2.2,0.6,3.1,1.3c0.2,0.2,0.4,0.2,0.7,0l1.8-1.8c0.2-0.2,0.2-0.4,0-0.6
								c-1.4-1.6-3.4-2.6-5.7-2.6c-4.2,0-7.5,3.4-7.5,7.7s3.3,7.7,7.5,7.7c2.3,0,4.4-1,5.8-2.6c0.2-0.2,0.1-0.5,0-0.6l-1.8-1.7
								c-0.2-0.2-0.4-0.2-0.7,0C344.9-16.8,344-16.3,342.6-16.3L342.6-16.3z M357.8-12.6c4.2,0,7.6-3.4,7.6-7.7S362-28,357.8-28
								c-4.2,0-7.6,3.4-7.6,7.7S353.6-12.6,357.8-12.6L357.8-12.6z M357.8-16.3c-2.1,0-3.8-1.7-3.8-4s1.7-4,3.8-4
								c2.1,0,3.8,1.7,3.8,4S359.9-16.3,357.8-16.3L357.8-16.3z"/>
						</g>
						<g id="Group_15_" transform="translate(746.000000, 480.000000)">
							<path id="launchaco_1_" d="M227.4-34.7V-10h-3.3v-24.7H227.4z M242.1-24.3h3.3V-10h-3.3v-1.5c-1.4,1.3-2.8,1.9-4.4,1.9
								c-2,0-3.6-0.7-4.9-2.1c-1.3-1.5-1.9-3.3-1.9-5.4c0-2.1,0.6-3.9,1.9-5.3s2.9-2.1,4.8-2.1c1.7,0,3.1,0.7,4.5,2.1V-24.3z
								 M234.2-17.2c0,1.4,0.4,2.5,1.1,3.3c0.8,0.9,1.7,1.3,2.8,1.3c1.2,0,2.2-0.4,3-1.3c0.8-0.9,1.1-2,1.1-3.3
								c0-1.3-0.4-2.4-1.1-3.3c-0.8-0.8-1.7-1.3-2.9-1.3c-1.1,0-2.1,0.4-2.8,1.3C234.6-19.5,234.2-18.5,234.2-17.2L234.2-17.2z
								 M252.8-24.3v8.2c0,2.4,0.9,3.5,2.8,3.5c1.9,0,2.8-1.2,2.8-3.5v-8.2h3.3v8.3c0,1.1-0.1,2.1-0.4,3c-0.3,0.7-0.7,1.4-1.4,2
								c-1.1,1-2.5,1.5-4.2,1.5c-1.7,0-3.1-0.5-4.2-1.5c-0.7-0.6-1.2-1.3-1.5-2c-0.3-0.7-0.4-1.7-0.4-3v-8.3H252.8z M265.9-24.3h3.3
								v1.3c1.2-1.1,2.5-1.7,3.9-1.7c1.7,0,3,0.5,3.9,1.6c0.8,0.9,1.2,2.3,1.2,4.4v8.7h-3.3v-8c0-1.4-0.2-2.4-0.6-2.9
								c-0.4-0.5-1.1-0.8-2.1-0.8c-1.1,0-1.9,0.4-2.3,1.1c-0.4,0.7-0.7,2-0.7,3.7v6.9h-3.3V-24.3z M293.4-23.7v4.4
								c-0.8-0.9-1.4-1.5-2-1.9c-0.6-0.4-1.3-0.5-2.1-0.5c-1.2,0-2.3,0.4-3.1,1.3s-1.2,2-1.2,3.3c0,1.3,0.4,2.4,1.2,3.3
								c0.8,0.9,1.8,1.3,3.1,1.3c0.8,0,1.5-0.2,2.1-0.5c0.6-0.3,1.3-1,2.1-1.9v4.4c-1.3,0.7-2.7,1-4,1c-2.2,0-4.1-0.7-5.5-2.1
								c-1.5-1.4-2.2-3.2-2.2-5.3s0.8-3.9,2.3-5.4s3.3-2.2,5.5-2.2C290.9-24.7,292.2-24.3,293.4-23.7L293.4-23.7z M297.4-34.7h3.3
								v11.7c1.2-1.1,2.5-1.6,3.9-1.6c1.6,0,2.9,0.5,3.9,1.6c0.8,0.9,1.2,2.4,1.2,4.4v8.7h-3.3v-8.4c0-1.1-0.2-2-0.6-2.5
								s-1.1-0.8-2-0.8c-1.2,0-2,0.4-2.4,1.1c-0.5,0.7-0.7,2-0.7,3.7v6.9h-3.3V-34.7z M324.4-24.3h3.3V-10h-3.3v-1.5
								c-1.4,1.3-2.8,1.9-4.4,1.9c-2,0-3.6-0.7-4.9-2.1c-1.3-1.5-1.9-3.3-1.9-5.4c0-2.1,0.6-3.9,1.9-5.3s2.9-2.1,4.8-2.1
								c1.7,0,3.1,0.7,4.5,2.1V-24.3z M316.6-17.2c0,1.4,0.4,2.5,1.1,3.3c0.8,0.9,1.7,1.3,2.8,1.3c1.2,0,2.2-0.4,3-1.3
								c0.8-0.9,1.1-2,1.1-3.3c0-1.3-0.4-2.4-1.1-3.3c-0.8-0.8-1.7-1.3-2.9-1.3c-1.1,0-2.1,0.4-2.8,1.3
								C316.9-19.5,316.6-18.5,316.6-17.2L316.6-17.2z M343-23.7v4.4c-0.8-0.9-1.4-1.5-2-1.9c-0.6-0.4-1.3-0.5-2.1-0.5
								c-1.2,0-2.3,0.4-3.1,1.3s-1.2,2-1.2,3.3c0,1.3,0.4,2.4,1.2,3.3c0.8,0.9,1.8,1.3,3.1,1.3c0.8,0,1.5-0.2,2.1-0.5
								c0.6-0.3,1.3-1,2.1-1.9v4.4c-1.3,0.7-2.7,1-4,1c-2.2,0-4.1-0.7-5.5-2.1c-1.5-1.4-2.2-3.2-2.2-5.3s0.8-3.9,2.3-5.4
								s3.3-2.2,5.5-2.2C340.4-24.7,341.7-24.3,343-23.7L343-23.7z M345.5-17.2c0-2.1,0.7-3.8,2.2-5.3s3.3-2.2,5.4-2.2
								c2.1,0,3.9,0.7,5.4,2.2c1.5,1.5,2.2,3.2,2.2,5.4c0,2.1-0.7,3.9-2.2,5.4c-1.5,1.4-3.3,2.2-5.5,2.2c-2.1,0-3.9-0.7-5.4-2.2
								C346.2-13.2,345.5-15,345.5-17.2L345.5-17.2z M348.8-17.2c0,1.4,0.4,2.6,1.1,3.4c0.8,0.8,1.8,1.3,3.1,1.3
								c1.3,0,2.3-0.4,3.1-1.2s1.2-1.9,1.2-3.3s-0.4-2.5-1.2-3.3c-0.8-0.8-1.8-1.3-3.1-1.3c-1.3,0-2.3,0.4-3.1,1.3
								S348.8-18.5,348.8-17.2L348.8-17.2z"/>
						</g>
						<g id="Group_16_" transform="translate(745.000000, 618.000000)">
							<path id="launchaco_2_" d="M224.6-12h4.5v-22.7h-4.5V-12z M241.5-12h4.1v-7.4c0-4.9-1.4-7.5-6.7-7.5c-2.4,0-4.8,0.8-6.4,2.3
								l2.4,2.5c1-1.1,2.2-1.7,3.7-1.7c1.6,0,2.9,1,2.9,2.6c-3.8,0-9.9,0.1-9.9,5.1c0,2.9,2.5,4.5,5.2,4.5c1.8,0,3.6-0.6,4.6-2.2
								h0.1V-12z M241.5-18.4v1c0,1.8-1.7,2.7-3.4,2.7c-1,0-2.1-0.5-2.1-1.6c0-2,3.1-2.1,4.4-2.1H241.5z M262.5-26.6H258v7.3
								c0,1.9-0.4,3.7-2.7,3.7c-2.3,0-2.3-2.2-2.3-3.8v-7.1h-4.5v8c0,3.9,0.8,6.9,5.4,6.9c2.2,0,3.7-1.2,4.3-2.3h0.1v2h4.3V-26.6z
								 M265.7-12h4.5v-7.3c0-1.9,0.4-3.7,2.7-3.7c2.3,0,2.3,2.2,2.3,3.8v7.1h4.5v-8c0-3.9-0.8-6.9-5.4-6.9c-2.2,0-3.7,1.2-4.3,2.3
								H270v-2h-4.3V-12z M295.8-25c-1.4-1.4-3.5-1.9-5.2-1.9c-4.5,0-8.1,3-8.1,7.6s3.6,7.7,8.1,7.7c1.7,0,3.8-0.5,5.2-2l-3-3.1
								c-0.5,0.6-1.2,1.1-2.2,1.1c-2.2,0-3.6-1.5-3.6-3.7s1.4-3.7,3.6-3.7c0.9,0,1.8,0.5,2.2,1.1L295.8-25z M297.4-34.7V-12h4.5
								v-7.3c0-1.9,0.4-3.7,2.7-3.7c2.3,0,2.3,2.2,2.3,3.8v7.1h4.5v-8c0-3.9-0.8-6.9-5.4-6.9c-2.2,0-3.7,1.2-4.1,2.3h-0.1v-10.1
								H297.4z M323.8-12h4.1v-7.4c0-4.9-1.4-7.5-6.7-7.5c-2.4,0-4.8,0.8-6.4,2.3l2.4,2.5c1-1.1,2.2-1.7,3.7-1.7
								c1.6,0,2.9,1,2.9,2.6c-3.8,0-9.9,0.1-9.9,5.1c0,2.9,2.5,4.5,5.2,4.5c1.8,0,3.6-0.6,4.6-2.2h0.1V-12z M323.8-18.4v1
								c0,1.8-1.6,2.7-3.4,2.7c-1,0-2.1-0.5-2.1-1.6c0-2,3.1-2.1,4.4-2.1H323.8z M343.6-25c-1.4-1.4-3.5-1.9-5.2-1.9
								c-4.5,0-8.1,3-8.1,7.6s3.6,7.7,8.1,7.7c1.7,0,3.8-0.5,5.2-2l-3-3.1c-0.5,0.6-1.2,1.1-2.2,1.1c-2.2,0-3.6-1.5-3.6-3.7
								s1.4-3.7,3.6-3.7c0.9,0,1.8,0.5,2.2,1.1L343.6-25z M344.6-19.3c0,4.7,3.6,7.7,8.1,7.7s8.1-3,8.1-7.7s-3.6-7.6-8.1-7.6
								S344.6-23.9,344.6-19.3L344.6-19.3z M349.1-19.3c0-2.2,1.4-3.7,3.6-3.7s3.6,1.5,3.6,3.7s-1.4,3.7-3.6,3.7
								S349.1-17.1,349.1-19.3L349.1-19.3z"/>
						</g>
						<g id="Group_17_" transform="translate(0.000000, 1.000000)">
							<polyline id="Shape_47_" fill-opacity="4.705880e-02" points="224,-35 1434,-35 1434,29 224,29 224,-35 							"/>
						</g>
						<g id="Group_18_" transform="translate(5.000000, 0.000000)">
							<polygon id="Shape_48_" fill="#FFFFFF" points="1429,-35 1429,29 224,29 224,-35 							"/>
						</g>
						<g id="Group_19_" transform="translate(223.000000, 23.000000)">
							<path id="Shape_49_" fill="#CCCCCC" d="M236.5-24h-0.8l-0.3-0.3c1-1.1,1.6-2.6,1.6-4.2c0-3.6-2.9-6.5-6.5-6.5
								s-6.5,2.9-6.5,6.5s2.9,6.5,6.5,6.5c1.6,0,3.1-0.6,4.2-1.6l0.3,0.3v0.8l5,5l1.5-1.5L236.5-24 M230.5-24c-2.5,0-4.5-2-4.5-4.5
								s2-4.5,4.5-4.5s4.5,2,4.5,4.5S233-24,230.5-24"/>
						</g>
					</g>
				</g>
			</g>
		</g>
		<g id="social-networks_1_" transform="translate(170.000000, 290.000000)">
			<path id="Rectangle" fill="#B3B3B3" fill-opacity="0.7" d="M290.5,1h67c2.5,0,4.5,2,4.5,4.5l0,0c0,2.5-2,4.5-4.5,4.5h-67
				c-2.5,0-4.5-2-4.5-4.5l0,0C286,3,288,1,290.5,1z"/>
			<path id="Rectangle_1_" fill="#B3B3B3" fill-opacity="0.7" d="M290.5,42h67c2.5,0,4.5,2,4.5,4.5l0,0c0,2.5-2,4.5-4.5,4.5h-67
				c-2.5,0-4.5-2-4.5-4.5l0,0C286,44,288,42,290.5,42z"/>
			<path id="Rectangle_2_" fill="#B3B3B3" fill-opacity="0.7" d="M290.5,83h67c2.5,0,4.5,2,4.5,4.5l0,0c0,2.5-2,4.5-4.5,4.5h-67
				c-2.5,0-4.5-2-4.5-4.5l0,0C286,85,288,83,290.5,83z"/>
			<path id="Rectangle_3_" fill="#B3B3B3" fill-opacity="0.7" d="M290.5,124h67c2.5,0,4.5,2,4.5,4.5l0,0c0,2.5-2,4.5-4.5,4.5h-67
				c-2.5,0-4.5-2-4.5-4.5l0,0C286,126,288,124,290.5,124z"/>
			<path id="Rectangle_4_" fill="#B3B3B3" fill-opacity="0.7" d="M533.5,42h32c2.5,0,4.5,2,4.5,4.5l0,0c0,2.5-2,4.5-4.5,4.5h-32
				c-2.5,0-4.5-2-4.5-4.5l0,0C529,44,531,42,533.5,42z"/>
			<path id="Rectangle_5_" fill="#B3B3B3" fill-opacity="0.7" d="M533.5,1h32c2.5,0,4.5,2,4.5,4.5l0,0c0,2.5-2,4.5-4.5,4.5h-32
				c-2.5,0-4.5-2-4.5-4.5l0,0C529,3,531,1,533.5,1z"/>
			<path id="Rectangle_6_" fill="#52CA6F" d="M533.5,83h32c2.5,0,4.5,2,4.5,4.5l0,0c0,2.5-2,4.5-4.5,4.5h-32c-2.5,0-4.5-2-4.5-4.5
				l0,0C529,85,531,83,533.5,83z"/>
			<path id="Rectangle_7_" fill="#B3B3B3" fill-opacity="0.7" d="M533.5,124h32c2.5,0,4.5,2,4.5,4.5l0,0c0,2.5-2,4.5-4.5,4.5h-32
				c-2.5,0-4.5-2-4.5-4.5l0,0C529,126,531,124,533.5,124z"/>
			<path id="Rectangle_8_" fill="#C9C9C9" fill-opacity="0.8" d="M261.5,42h11.1c2.5,0,4.5,2,4.5,4.5l0,0c0,2.5-2,4.5-4.5,4.5h-11.1
				c-2.5,0-4.5-2-4.5-4.5l0,0C257,44,259,42,261.5,42z"/>
			<path id="Rectangle_9_" fill="#C9C9C9" fill-opacity="0.8" d="M261.5,1h11.1c2.5,0,4.5,2,4.5,4.5l0,0c0,2.5-2,4.5-4.5,4.5h-11.1
				c-2.5,0-4.5-2-4.5-4.5l0,0C257,3,259,1,261.5,1z"/>
			<path id="Rectangle_10_" fill="#C9C9C9" fill-opacity="0.8" d="M261.5,83h11.1c2.5,0,4.5,2,4.5,4.5l0,0c0,2.5-2,4.5-4.5,4.5
				h-11.1c-2.5,0-4.5-2-4.5-4.5l0,0C257,85,259,83,261.5,83z"/>
			<path id="Rectangle_11_" fill="#C9C9C9" fill-opacity="0.8" d="M261.5,124h11.1c2.5,0,4.5,2,4.5,4.5l0,0c0,2.5-2,4.5-4.5,4.5
				h-11.1c-2.5,0-4.5-2-4.5-4.5l0,0C257,126,259,124,261.5,124z"/>
			<path id="Rectangle_12_" fill="#B3B3B3" d="M228.5-35h129c2.5,0,4.5,2,4.5,4.5l0,0c0,2.5-2,4.5-4.5,4.5h-129
				c-2.5,0-4.5-2-4.5-4.5l0,0C224-33,226-35,228.5-35z"/>
		</g>
		<g id="startup-domains" transform="translate(170.000000, 514.000000)">
			<path id="Rectangle_13_" fill="#3FC55F" fill-opacity="0.9" d="M533.5,45h32c2.5,0,4.5,2,4.5,4.5l0,0c0,2.5-2,4.5-4.5,4.5h-32
				c-2.5,0-4.5-2-4.5-4.5l0,0C529,47,531,45,533.5,45z"/>
			<path id="Rectangle_14_" fill="#3FC55F" fill-opacity="0.9" d="M533.5,168h32c2.5,0,4.5,2,4.5,4.5l0,0c0,2.5-2,4.5-4.5,4.5h-32
				c-2.5,0-4.5-2-4.5-4.5l0,0C529,170,531,168,533.5,168z"/>
			<path id="Rectangle_15_" fill="#3FC55F" fill-opacity="0.9" d="M533.5,4h32c2.5,0,4.5,2,4.5,4.5l0,0c0,2.5-2,4.5-4.5,4.5h-32
				c-2.5,0-4.5-2-4.5-4.5l0,0C529,6,531,4,533.5,4z"/>
			<path id="Rectangle_16_" fill="#3FC55F" fill-opacity="0.9" d="M533.5,86h32c2.5,0,4.5,2,4.5,4.5l0,0c0,2.5-2,4.5-4.5,4.5h-32
				c-2.5,0-4.5-2-4.5-4.5l0,0C529,88,531,86,533.5,86z"/>
			<path id="Rectangle_17_" fill="#3FC55F" fill-opacity="0.9" d="M533.5,127h32c2.5,0,4.5,2,4.5,4.5l0,0c0,2.5-2,4.5-4.5,4.5h-32
				c-2.5,0-4.5-2-4.5-4.5l0,0C529,129,531,127,533.5,127z"/>
			<path id="Rectangle_18_" fill="#B3B3B3" fill-opacity="0.5" d="M263.5,6h67c2.5,0,4.5,2,4.5,4.5l0,0c0,2.5-2,4.5-4.5,4.5h-67
				c-2.5,0-4.5-2-4.5-4.5l0,0C259,8,261,6,263.5,6z"/>
			<path id="Rectangle_19_" fill="#B3B3B3" fill-opacity="0.5" d="M263.5,47h67c2.5,0,4.5,2,4.5,4.5l0,0c0,2.5-2,4.5-4.5,4.5h-67
				c-2.5,0-4.5-2-4.5-4.5l0,0C259,49,261,47,263.5,47z"/>
			<path id="Rectangle_20_" fill="#B3B3B3" fill-opacity="0.5" d="M263.5,88h67c2.5,0,4.5,2,4.5,4.5l0,0c0,2.5-2,4.5-4.5,4.5h-67
				c-2.5,0-4.5-2-4.5-4.5l0,0C259,90,261,88,263.5,88z"/>
			<path id="Rectangle_21_" fill="#B3B3B3" fill-opacity="0.5" d="M263.5,129h67c2.5,0,4.5,2,4.5,4.5l0,0c0,2.5-2,4.5-4.5,4.5h-67
				c-2.5,0-4.5-2-4.5-4.5l0,0C259,131,261,129,263.5,129z"/>
			<path id="Rectangle_22_" fill="#B3B3B3" fill-opacity="0.5" d="M263.5,169h67c2.5,0,4.5,2,4.5,4.5l0,0c0,2.5-2,4.5-4.5,4.5h-67
				c-2.5,0-4.5-2-4.5-4.5l0,0C259,171,261,169,263.5,169z"/>
			<path id="Rectangle_23_" fill="#B3B3B3" fill-opacity="0.3" d="M348.5,47h32c2.5,0,4.5,2,4.5,4.5l0,0c0,2.5-2,4.5-4.5,4.5h-32
				c-2.5,0-4.5-2-4.5-4.5l0,0C344,49,346,47,348.5,47z"/>
			<path id="Rectangle_24_" fill="#B3B3B3" fill-opacity="0.3" d="M348.5,6h32c2.5,0,4.5,2,4.5,4.5l0,0c0,2.5-2,4.5-4.5,4.5h-32
				c-2.5,0-4.5-2-4.5-4.5l0,0C344,8,346,6,348.5,6z"/>
			<path id="Rectangle_25_" fill="#B3B3B3" fill-opacity="0.3" d="M348.5,88h32c2.5,0,4.5,2,4.5,4.5l0,0c0,2.5-2,4.5-4.5,4.5h-32
				c-2.5,0-4.5-2-4.5-4.5l0,0C344,90,346,88,348.5,88z"/>
			<path id="Rectangle_26_" fill="#B3B3B3" fill-opacity="0.3" d="M348.5,129h32c2.5,0,4.5,2,4.5,4.5l0,0c0,2.5-2,4.5-4.5,4.5h-32
				c-2.5,0-4.5-2-4.5-4.5l0,0C344,131,346,129,348.5,129z"/>
			<path id="Rectangle_27_" fill="#B3B3B3" fill-opacity="0.3" d="M348.5,169h32c2.5,0,4.5,2,4.5,4.5l0,0c0,2.5-2,4.5-4.5,4.5h-32
				c-2.5,0-4.5-2-4.5-4.5l0,0C344,171,346,169,348.5,169z"/>
			<path id="Rectangle_28_" fill="#C9C9C9" d="M235.5,47h11.1c2.5,0,4.5,2,4.5,4.5l0,0c0,2.5-2,4.5-4.5,4.5h-11.1
				c-2.5,0-4.5-2-4.5-4.5l0,0C231,49,233,47,235.5,47z"/>
			<path id="Rectangle_29_" fill="#C9C9C9" d="M235.5,6h11.1c2.5,0,4.5,2,4.5,4.5l0,0c0,2.5-2,4.5-4.5,4.5h-11.1
				c-2.5,0-4.5-2-4.5-4.5l0,0C231,8,233,6,235.5,6z"/>
			<path id="Rectangle_30_" fill="#C9C9C9" d="M235.5,88h11.1c2.5,0,4.5,2,4.5,4.5l0,0c0,2.5-2,4.5-4.5,4.5h-11.1
				c-2.5,0-4.5-2-4.5-4.5l0,0C231,90,233,88,235.5,88z"/>
			<path id="Rectangle_31_" fill="#C9C9C9" d="M235.5,129h11.1c2.5,0,4.5,2,4.5,4.5l0,0c0,2.5-2,4.5-4.5,4.5h-11.1
				c-2.5,0-4.5-2-4.5-4.5l0,0C231,131,233,129,235.5,129z"/>
			<path id="Rectangle_32_" fill="#C9C9C9" d="M235.5,169h11.1c2.5,0,4.5,2,4.5,4.5l0,0c0,2.5-2,4.5-4.5,4.5h-11.1
				c-2.5,0-4.5-2-4.5-4.5l0,0C231,171,233,169,235.5,169z"/>
			<path id="Rectangle_33_" fill="#B3B3B3" d="M228.5-35h101c2.5,0,4.5,2,4.5,4.5l0,0c0,2.5-2,4.5-4.5,4.5h-101
				c-2.5,0-4.5-2-4.5-4.5l0,0C224-33,226-35,228.5-35z"/>
		</g>
		<g id="business-domains" transform="translate(170.000000, 781.000000)">
			<path id="Rectangle_34_" fill="#3FC55F" fill-opacity="0.9" d="M533.5,44h32c2.5,0,4.5,2,4.5,4.5l0,0c0,2.5-2,4.5-4.5,4.5h-32
				c-2.5,0-4.5-2-4.5-4.5l0,0C529,46,531,44,533.5,44z"/>
			<path id="Rectangle_35_" fill="#3FC55F" fill-opacity="0.9" d="M533.5,3h32c2.5,0,4.5,2,4.5,4.5l0,0c0,2.5-2,4.5-4.5,4.5h-32
				c-2.5,0-4.5-2-4.5-4.5l0,0C529,5,531,3,533.5,3z"/>
			<path id="Rectangle_36_" fill="#B3B3B3" fill-opacity="0.7" d="M232.5,5h67c2.5,0,4.5,2,4.5,4.5l0,0c0,2.5-2,4.5-4.5,4.5h-67
				c-2.5,0-4.5-2-4.5-4.5l0,0C228,7,230,5,232.5,5z"/>
			<path id="Rectangle_37_" fill="#B3B3B3" fill-opacity="0.7" d="M232.5,45h67c2.5,0,4.5,2,4.5,4.5l0,0c0,2.5-2,4.5-4.5,4.5h-67
				c-2.5,0-4.5-2-4.5-4.5l0,0C228,47,230,45,232.5,45z"/>
			<path id="Rectangle_38_" fill="#B3B3B3" d="M228.5-35h111c2.5,0,4.5,2,4.5,4.5l0,0c0,2.5-2,4.5-4.5,4.5h-111
				c-2.5,0-4.5-2-4.5-4.5l0,0C224-33,226-35,228.5-35z"/>
		</g>
		<g id="sans-serif-logotype" transform="translate(560.000000, 290.000000)">
			<path id="Rectangle_39_" fill="#B3B3B3" fill-opacity="0.3" d="M238.5,93h95c2.5,0,4.5,2,4.5,4.5l0,0c0,2.5-2,4.5-4.5,4.5h-95
				c-2.5,0-4.5-2-4.5-4.5l0,0C234,95,236,93,238.5,93z"/>
			<path id="Rectangle_40_" fill="#B3B3B3" fill-opacity="0.3" d="M238.5,357h95c2.5,0,4.5,2,4.5,4.5l0,0c0,2.5-2,4.5-4.5,4.5h-95
				c-2.5,0-4.5-2-4.5-4.5l0,0C234,359,236,357,238.5,357z"/>
			<path id="Rectangle_41_" fill="#B3B3B3" fill-opacity="0.3" d="M238.5,490h151c2.5,0,4.5,2,4.5,4.5l0,0c0,2.5-2,4.5-4.5,4.5h-151
				c-2.5,0-4.5-2-4.5-4.5l0,0C234,492,236,490,238.5,490z"/>
			<path id="Rectangle_42_" fill="#B3B3B3" fill-opacity="0.3" d="M238.5,225h126c2.5,0,4.5,2,4.5,4.5l0,0c0,2.5-2,4.5-4.5,4.5h-126
				c-2.5,0-4.5-2-4.5-4.5l0,0C234,227,236,225,238.5,225z"/>
			<path id="Rectangle_43_" fill="#3FC55F" fill-opacity="0.9" d="M531.5,92h42c2.5,0,4.5,2,4.5,4.5l0,0c0,2.5-2,4.5-4.5,4.5h-42
				c-2.5,0-4.5-2-4.5-4.5l0,0C527,94,529,92,531.5,92z"/>
			<path id="Rectangle_44_" fill="#3FC55F" fill-opacity="0.9" d="M531.5,224h42c2.5,0,4.5,2,4.5,4.5l0,0c0,2.5-2,4.5-4.5,4.5h-42
				c-2.5,0-4.5-2-4.5-4.5l0,0C527,226,529,224,531.5,224z"/>
			<path id="Rectangle_45_" fill="#3FC55F" fill-opacity="0.9" d="M531.5,356h42c2.5,0,4.5,2,4.5,4.5l0,0c0,2.5-2,4.5-4.5,4.5h-42
				c-2.5,0-4.5-2-4.5-4.5l0,0C527,358,529,356,531.5,356z"/>
			<path id="Rectangle_46_" fill="#3FC55F" fill-opacity="0.9" d="M531.5,490h42c2.5,0,4.5,2,4.5,4.5l0,0c0,2.5-2,4.5-4.5,4.5h-42
				c-2.5,0-4.5-2-4.5-4.5l0,0C527,492,529,490,531.5,490z"/>
			<path id="Rectangle_47_" fill="#B3B3B3" d="M228.5-35h129c2.5,0,4.5,2,4.5,4.5l0,0c0,2.5-2,4.5-4.5,4.5h-129
				c-2.5,0-4.5-2-4.5-4.5l0,0C224-33,226-35,228.5-35z"/>
		</g>
		<g id="default-tlds" transform="translate(170.000000, 25.000000)">
			<path id="Rectangle_48_" fill="#3FC55F" fill-opacity="0.9" d="M878.5,142h42c2.5,0,4.5,2,4.5,4.5l0,0c0,2.5-2,4.5-4.5,4.5h-42
				c-2.5,0-4.5-2-4.5-4.5l0,0C874,144,876,142,878.5,142z"/>
			<path id="Rectangle_49_" fill="#3FC55F" fill-opacity="0.9" d="M727.5,142h42c2.5,0,4.5,2,4.5,4.5l0,0c0,2.5-2,4.5-4.5,4.5h-42
				c-2.5,0-4.5-2-4.5-4.5l0,0C723,144,725,142,727.5,142z"/>
			<path id="Rectangle_50_" fill="#3FC55F" fill-opacity="0.9" d="M576.5,142h42c2.5,0,4.5,2,4.5,4.5l0,0c0,2.5-2,4.5-4.5,4.5h-42
				c-2.5,0-4.5-2-4.5-4.5l0,0C572,144,574,142,576.5,142z"/>
			<path id="Rectangle_51_" fill="#3FC55F" fill-opacity="0.9" d="M425.5,142h42c2.5,0,4.5,2,4.5,4.5l0,0c0,2.5-2,4.5-4.5,4.5h-42
				c-2.5,0-4.5-2-4.5-4.5l0,0C421,144,423,142,425.5,142z"/>
			<path id="Rectangle_52_" fill="#B3B3B3" fill-opacity="0.7" d="M274.5,143h42c2.5,0,4.5,2,4.5,4.5l0,0c0,2.5-2,4.5-4.5,4.5h-42
				c-2.5,0-4.5-2-4.5-4.5l0,0C270,145,272,143,274.5,143z"/>
			<path id="Rectangle_53_" fill="#B3B3B3" d="M228.5,44h84c2.5,0,4.5,2,4.5,4.5l0,0c0,2.5-2,4.5-4.5,4.5h-84c-2.5,0-4.5-2-4.5-4.5
				l0,0C224,46,226,44,228.5,44z"/>
			<path id="Rectangle_54_" fill="#B3B3B3" fill-opacity="0.7" d="M250.5-35h110c3.6,0,6.5,2.9,6.5,6.5l0,0c0,3.6-2.9,6.5-6.5,6.5
				h-110c-3.6,0-6.5-2.9-6.5-6.5l0,0C244-32.1,246.9-35,250.5-35z"/>
		</g>
		<text transform="matrix(1 0 0 1 905 735)" font-family="'Avenir-Roman'" font-size="28">launchaco</text>
	</g>
</g>
<rect x="395.3" y="283.6" fill="#FFFFFF" width="22.5" height="21.9"/>
<rect x="395.3" y="324.6" fill="#FFFFFF" width="22.5" height="21.9"/>
<rect x="395.2" y="365.6" fill="#FFFFFF" width="22.5" height="21.9"/>
<rect x="395.3" y="406.5" fill="#FFFFFF" width="22.5" height="21.9"/>
<rect x="426.9" y="124.4" fill="#F5F5F5" width="64.1" height="16.9"/>
<rect x="571.3" y="114" fill="#FFFFFF" width="90.2" height="37.1"/>
<rect x="722.4" y="116.7" fill="#FFFFFF" width="90.2" height="37.1"/>
<rect x="872.9" y="115.4" fill="#FFFFFF" width="90.2" height="37.1"/>
<rect x="1024.4" y="120.4" fill="#FFFFFF" width="90.2" height="37.1"/>
<rect x="885.2" y="307.3" fill="#FFFFFF" width="165" height="47.2"/>
<rect x="888.2" y="435.5" fill="#FFFFFF" width="165" height="47.2"/>
<rect x="881.5" y="571.2" fill="#FFFFFF" width="165" height="47.2"/>
<rect x="879.2" y="704.9" fill="#FFFFFF" width="165" height="47.2"/>
</svg>
